<svg width="101" height="60" viewBox="0 0 101 60" fill="none" xmlns="http://www.w3.org/2000/svg">
<g id="Icon">
<g id="Vector" opacity="0.6">
<mask id="path-1-inside-1_3908_8568" fill="white">
<path d="M19.8786 55.0485H6.11651C4.49431 55.0485 2.93855 54.4041 1.79148 53.2571C0.644416 52.11 0 50.5542 0 48.932V6.11651C0 4.49431 0.644416 2.93855 1.79148 1.79148C2.93855 0.644415 4.49431 0 6.11651 0H61.1651C62.7872 0 64.343 0.644415 65.4901 1.79148C66.6371 2.93855 67.2816 4.49431 67.2816 6.11651V7.64563"/>
</mask>
<path d="M19.8786 58.0485C21.5355 58.0485 22.8786 56.7054 22.8786 55.0485C22.8786 53.3917 21.5355 52.0485 19.8786 52.0485V58.0485ZM0 48.932H-3H0ZM6.11651 0V-3V0ZM61.1651 0V-3V0ZM64.2816 7.64563C64.2816 9.30249 65.6247 10.6456 67.2816 10.6456C68.9384 10.6456 70.2816 9.30249 70.2816 7.64563H64.2816ZM19.8786 52.0485H6.11651V58.0485H19.8786V52.0485ZM6.11651 52.0485C5.28996 52.0485 4.49726 51.7202 3.9128 51.1357L-0.329838 55.3784C1.37984 57.0881 3.69866 58.0485 6.11651 58.0485V52.0485ZM3.9128 51.1357C3.32834 50.5513 3 49.7586 3 48.932H-3C-3 51.3499 -2.03951 53.6687 -0.329838 55.3784L3.9128 51.1357ZM3 48.932V6.11651H-3V48.932H3ZM3 6.11651C3 5.28996 3.32835 4.49726 3.9128 3.9128L-0.329838 -0.329838C-2.03951 1.37984 -3 3.69866 -3 6.11651H3ZM3.9128 3.9128C4.49726 3.32835 5.28996 3 6.11651 3V-3C3.69866 -3 1.37984 -2.03951 -0.329838 -0.329838L3.9128 3.9128ZM6.11651 3H61.1651V-3H6.11651V3ZM61.1651 3C61.9916 3 62.7843 3.32835 63.3688 3.9128L67.6114 -0.329838C65.9017 -2.03951 63.5829 -3 61.1651 -3V3ZM63.3688 3.9128C63.9532 4.49726 64.2816 5.28995 64.2816 6.11651H70.2816C70.2816 3.69866 69.3211 1.37984 67.6114 -0.329838L63.3688 3.9128ZM64.2816 6.11651V7.64563H70.2816V6.11651H64.2816Z" fill="#7B62F2" mask="url(#path-1-inside-1_3908_8568)"/>
</g>
<path id="Vector_2" opacity="0.4" d="M9.17578 10.7065H58.1078" stroke="#7B62F2" stroke-width="3" stroke-miterlimit="10" stroke-linecap="round"/>
<path id="Vector_3" opacity="0.4" d="M9.17578 21.4058H47.4039" stroke="#7B62F2" stroke-width="3" stroke-miterlimit="10" stroke-linecap="round"/>
<path id="Vector_4" opacity="0.4" d="M9.17578 32.1123H39.7583" stroke="#7B62F2" stroke-width="3" stroke-miterlimit="10" stroke-linecap="round"/>
<path id="Vector_5" opacity="0.4" d="M9.17578 42.814H29.0544" stroke="#7B62F2" stroke-width="3" stroke-miterlimit="10" stroke-linecap="round"/>
<path id="Vector_6" d="M50.9741 36.9069C50.9221 37.6952 50.2674 38.308 49.4774 38.308C49.4186 38.308 49.3676 38.3048 49.3278 38.3012C43.8663 38.343 39.4578 42.7712 39.4578 48.2184C39.4578 53.6915 43.9083 58.1358 49.4058 58.1358H57.9919H89.4739C94.9714 58.1358 99.4219 53.6915 99.4219 48.2184C99.4219 43.5996 96.2336 39.736 91.9145 38.6417C91.275 38.4797 90.8164 37.9189 90.7847 37.2599C90.2764 26.7198 81.5695 18.3203 70.8709 18.3203C60.2921 18.3203 51.6593 26.5327 50.9741 36.9069ZM49.2159 38.2874C49.2159 38.2874 49.2191 38.2879 49.2228 38.2884L49.2176 38.2876L49.2159 38.2874ZM49.6674 35.3215C49.6674 35.3215 49.6642 35.3211 49.6604 35.3205L49.6657 35.3213L49.6674 35.3215Z" stroke="#7B62F2" stroke-width="3" stroke-miterlimit="10" stroke-linecap="round" stroke-linejoin="round"/>
</g>
</svg>
