<svg width="65" height="58" viewBox="0 0 65 58" fill="none" xmlns="http://www.w3.org/2000/svg">
<g id="ICON">
<g id="Vector">
<path fill-rule="evenodd" clip-rule="evenodd" d="M39.5927 10.1417C29.4711 10.1417 20.9389 17.0257 18.4 26.4006C18.1741 27.2348 17.3147 27.7279 16.4804 27.502C15.6462 27.2761 15.1531 26.4167 15.379 25.5825C18.2757 14.8865 28.0133 7.01193 39.5927 7.01193C53.457 7.01193 64.684 18.3007 64.684 32.2111C64.684 46.1214 53.457 57.4102 39.5927 57.4102C38.7285 57.4102 38.0278 56.7096 38.0278 55.8453C38.0278 54.981 38.7285 54.2804 39.5927 54.2804C51.715 54.2804 61.5542 44.4064 61.5542 32.2111C61.5542 20.0158 51.715 10.1417 39.5927 10.1417Z" fill="#7B62F2"/>
<path fill-rule="evenodd" clip-rule="evenodd" d="M16.8192 10.5881C17.4303 9.97701 18.4212 9.97701 19.0323 10.5881L24.0346 15.5904L21.8215 17.8036L16.8192 12.8012C16.208 12.1901 16.208 11.1993 16.8192 10.5881Z" fill="#7B62F2"/>
<path fill-rule="evenodd" clip-rule="evenodd" d="M34.0251 1.5649C34.0251 0.700631 34.7258 0 35.59 0H44.9398C45.8041 0 46.5047 0.700631 46.5047 1.5649C46.5047 2.42918 45.8041 3.12981 44.9398 3.12981H41.8298V9.10329H38.7V3.12981H35.59C34.7258 3.12981 34.0251 2.42918 34.0251 1.5649Z" fill="#7B62F2"/>
<path fill-rule="evenodd" clip-rule="evenodd" d="M50.4599 20.4564C51.071 21.0675 51.071 22.0584 50.4599 22.6695L40.3309 32.7985C39.7198 33.4096 38.7289 33.4096 38.1178 32.7985C37.5067 32.1873 37.5067 31.1965 38.1178 30.5853L48.2467 20.4564C48.8579 19.8453 49.8487 19.8453 50.4599 20.4564Z" fill="#7B62F2"/>
</g>
<path id="Vector 318 (Stroke)" fill-rule="evenodd" clip-rule="evenodd" d="M0 33.5107C0 32.6464 0.700631 31.9458 1.5649 31.9458H28.3157C29.18 31.9458 29.8806 32.6464 29.8806 33.5107C29.8806 34.375 29.18 35.0756 28.3157 35.0756H1.5649C0.700631 35.0756 0 34.375 0 33.5107ZM8.05122 43.1202C8.05122 42.256 8.75185 41.5553 9.61612 41.5553H28.3157C29.18 41.5553 29.8806 42.256 29.8806 43.1202C29.8806 43.9845 29.18 44.6851 28.3157 44.6851H9.61612C8.75185 44.6851 8.05122 43.9845 8.05122 43.1202ZM15.0636 52.47C15.0636 51.6058 15.7642 50.9051 16.6285 50.9051H28.3157C29.18 50.9051 29.8806 51.6058 29.8806 52.47C29.8806 53.3343 29.18 54.0349 28.3157 54.0349H16.6285C15.7642 54.0349 15.0636 53.3343 15.0636 52.47Z" fill="url(#paint0_linear_3908_8583)" fill-opacity="0.6"/>
</g>
<defs>
<linearGradient id="paint0_linear_3908_8583" x1="9.46546" y1="31.9458" x2="47.4079" y2="107.508" gradientUnits="userSpaceOnUse">
<stop stop-color="#7B62F2"/>
<stop offset="1" stop-color="#5031E4"/>
</linearGradient>
</defs>
</svg>
