<svg width="334" height="180" viewBox="0 0 334 180" fill="none" xmlns="http://www.w3.org/2000/svg">
<rect x="3" y="32.9443" width="330" height="145" rx="16" fill="url(#paint0_linear_605_193953)" fill-opacity="0.1"/>
<path d="M85.5 33.9443H19C10.1634 33.9443 3 41.1078 3 49.9443V161.944C3 170.781 10.1634 177.944 19 177.944H315C323.837 177.944 331 170.781 331 161.944V49.9443C331 41.1078 323.837 33.9443 315 33.9443H248.5" stroke="url(#paint1_linear_605_193953)" stroke-width="3" stroke-linecap="round"/>
<mask id="path-3-inside-1_605_193953" fill="white">
<rect x="107" y="39.2456" width="20.0099" height="20.2581" rx="2"/>
</mask>
<rect x="107" y="39.2456" width="20.0099" height="20.2581" rx="2" stroke="#6760F5" stroke-width="6" stroke-linecap="round" stroke-linejoin="round" mask="url(#path-3-inside-1_605_193953)"/>
<g opacity="0.8">
<mask id="path-4-inside-2_605_193953" fill="white">
<rect x="131.998" y="39.2456" width="20.0099" height="20.2581" rx="2"/>
</mask>
<rect x="131.998" y="39.2456" width="20.0099" height="20.2581" rx="2" stroke="#6760F5" stroke-width="6" stroke-linecap="round" stroke-linejoin="round" mask="url(#path-4-inside-2_605_193953)"/>
</g>
<g opacity="0.6">
<mask id="path-5-inside-3_605_193953" fill="white">
<rect x="156.994" y="39.2456" width="20.0099" height="20.2581" rx="2"/>
</mask>
<rect x="156.994" y="39.2456" width="20.0099" height="20.2581" rx="2" stroke="#6760F5" stroke-width="6" stroke-linecap="round" stroke-linejoin="round" mask="url(#path-5-inside-3_605_193953)"/>
</g>
<g opacity="0.4">
<mask id="path-6-inside-4_605_193953" fill="white">
<rect x="181.992" y="39.2456" width="20.0099" height="20.2581" rx="2"/>
</mask>
<rect x="181.992" y="39.2456" width="20.0099" height="20.2581" rx="2" stroke="#6760F5" stroke-width="6" stroke-linecap="round" stroke-linejoin="round" mask="url(#path-6-inside-4_605_193953)"/>
</g>
<g opacity="0.2">
<mask id="path-7-inside-5_605_193953" fill="white">
<rect x="206.99" y="39.2456" width="20.0099" height="20.2581" rx="2"/>
</mask>
<rect x="206.99" y="39.2456" width="20.0099" height="20.2581" rx="2" stroke="#6760F5" stroke-width="6" stroke-linecap="round" stroke-linejoin="round" mask="url(#path-7-inside-5_605_193953)"/>
</g>
<mask id="path-8-inside-6_605_193953" fill="white">
<rect x="107" y="14" width="20.0099" height="20.2581" rx="2"/>
</mask>
<rect x="107" y="14" width="20.0099" height="20.2581" rx="2" stroke="#6760F5" stroke-width="6" stroke-linecap="round" stroke-linejoin="round" mask="url(#path-8-inside-6_605_193953)"/>
<g opacity="0.8">
<mask id="path-9-inside-7_605_193953" fill="white">
<rect x="131.998" y="14" width="20.0099" height="20.2581" rx="2"/>
</mask>
<rect x="131.998" y="14" width="20.0099" height="20.2581" rx="2" stroke="#6760F5" stroke-width="6" stroke-linecap="round" stroke-linejoin="round" mask="url(#path-9-inside-7_605_193953)"/>
</g>
<g opacity="0.6">
<mask id="path-10-inside-8_605_193953" fill="white">
<rect x="156.994" y="14" width="20.0099" height="20.2581" rx="2"/>
</mask>
<rect x="156.994" y="14" width="20.0099" height="20.2581" rx="2" stroke="#6760F5" stroke-width="6" stroke-linecap="round" stroke-linejoin="round" mask="url(#path-10-inside-8_605_193953)"/>
</g>
<g opacity="0.4">
<mask id="path-11-inside-9_605_193953" fill="white">
<rect x="181.992" y="14" width="20.0099" height="20.2581" rx="2"/>
</mask>
<rect x="181.992" y="14" width="20.0099" height="20.2581" rx="2" stroke="#6760F5" stroke-width="6" stroke-linecap="round" stroke-linejoin="round" mask="url(#path-11-inside-9_605_193953)"/>
</g>
<g opacity="0.2">
<mask id="path-12-inside-10_605_193953" fill="white">
<rect x="206.99" y="14" width="20.0099" height="20.2581" rx="2"/>
</mask>
<rect x="206.99" y="14" width="20.0099" height="20.2581" rx="2" stroke="#6760F5" stroke-width="6" stroke-linecap="round" stroke-linejoin="round" mask="url(#path-12-inside-10_605_193953)"/>
</g>
<path d="M95.916 104.944H93.4355V91.1455H95.916V104.944ZM106.473 100.96L110.135 91.1455H113.475V104.944H111.092V94.6416L107.674 103.743H105.271L101.854 94.6416V104.944H99.4707V91.1455H102.811L106.473 100.96ZM118.074 104.944H115.369L120.896 91.1455H122.752L128.25 104.944H125.574L124.471 101.946H119.188L118.074 104.944ZM121.834 94.7881L119.969 99.8271H123.689L121.834 94.7881ZM135.896 99.4854V97.4834H141.434V104.944H139.471L139.256 103.001C138.875 103.655 138.328 104.183 137.615 104.563C136.893 104.944 136.082 105.14 135.174 105.14C132.977 105.14 131.189 104.329 130.125 103.001C129.061 101.683 128.494 99.9639 128.494 98.04C128.494 95.7451 129.256 93.6943 130.838 92.3369C131.863 91.4482 133.387 90.9209 135.154 90.9209C136.521 90.9209 137.732 91.2627 138.777 91.9365C139.822 92.6201 140.613 93.6064 141.17 94.8857L138.973 95.8037C138.357 93.9775 136.961 93.0889 135.135 93.0889C133.729 93.0889 132.605 93.6553 131.951 94.5635C131.287 95.4717 130.955 96.624 130.955 97.9424C130.955 99.3486 131.287 100.53 131.951 101.458C132.615 102.386 133.738 102.923 135.174 102.923C136.277 102.923 137.176 102.62 137.859 102.024C138.533 101.429 138.895 100.589 138.934 99.4854H135.896ZM153.631 104.944H144.451V91.1455H153.631V93.4209H146.932V96.9072H153.172V99.1826H146.932V102.601H153.631V104.944ZM174.402 104.603L172.811 106.106L170.828 104.124C169.803 104.798 168.562 105.14 167.127 105.14C165.359 105.14 163.836 104.603 162.811 103.724C161.785 102.845 161.053 101.604 160.721 100.218C160.389 98.8311 160.389 97.2393 160.721 95.8525C161.053 94.4658 161.785 93.2256 162.811 92.3467C163.836 91.4678 165.359 90.9404 167.127 90.9404C168.895 90.9404 170.418 91.4775 171.443 92.3564C173.006 93.6943 173.807 95.8135 173.787 98.0596C173.787 99.8271 173.299 101.517 172.43 102.728L174.402 104.603ZM165.232 102.435C165.779 102.679 166.414 102.806 167.127 102.806C167.84 102.806 168.494 102.669 169.07 102.405L167.186 100.687L168.787 99.2217L170.623 100.921C171.082 100.101 171.307 99.1436 171.307 98.04C171.277 96.0674 170.643 94.417 169.021 93.6553C168.475 93.4111 167.84 93.2842 167.127 93.2842C166.414 93.2842 165.779 93.4111 165.232 93.6553C164.686 93.8994 164.246 94.251 163.924 94.6904C163.27 95.5791 162.947 96.7021 162.947 98.04C162.947 98.7139 163.025 99.3291 163.191 99.8857C163.514 101.019 164.139 101.937 165.232 102.435ZM181.775 105.14C179.988 105.14 178.66 104.651 177.801 103.665C176.932 102.688 176.502 101.321 176.502 99.5635V91.1455H178.973V99.2803C178.973 100.462 179.178 101.341 179.588 101.897C179.988 102.464 180.721 102.747 181.775 102.747C182.84 102.747 183.572 102.464 183.973 101.897C184.373 101.341 184.578 100.462 184.578 99.2803V91.1455H187.059V99.4658C187.059 101.272 186.629 102.669 185.77 103.655C184.9 104.642 183.572 105.14 181.775 105.14ZM190.789 104.944H188.084L193.611 91.1455H195.467L200.965 104.944H198.289L197.186 101.946H191.902L190.789 104.944ZM194.549 94.7881L192.684 99.8271H196.404L194.549 94.7881ZM211.248 104.944H202.869V91.1455H205.35V102.601H211.248V104.944ZM215.74 104.944H213.26V91.1455H215.74V104.944ZM224.52 104.944H222.039V93.3623H217.713V91.1455H228.836V93.3623H224.52V104.944ZM237.195 104.944H234.607V99.5635L229.432 91.1455H232.43L235.867 97.1807L239.334 91.1455H242.352L237.195 99.5635V104.944Z" fill="white"/>
<path d="M108.977 121.285V127.779H110.549V128.641H108.977V130.944H108.054V128.641H103.214V128.039L108.122 121.285H108.977ZM108.054 122.666L104.396 127.779H108.054V122.666ZM113.379 130.944H112.442V121.285H113.379V127.089L118.902 121.285H120.167L116.469 125.093L120.358 130.944H119.196L115.819 125.722L113.379 128.244V130.944ZM129.129 130.165H128.432V127.021H125.28V126.316H128.432V123.165H129.129V126.316H132.273V127.021H129.129V130.165ZM139.191 130.944H138.255V121.285H139.191V125.653H144.264V121.285H145.2V130.944H144.264V126.521H139.191V130.944ZM150.854 130.944H148.263V121.285H150.867C152.46 121.285 153.684 121.709 154.531 122.55C155.372 123.397 155.796 124.607 155.796 126.187C155.796 127.697 155.365 128.873 154.511 129.7C153.656 130.527 152.433 130.944 150.854 130.944ZM149.199 122.153V130.076H150.771C153.396 130.076 154.859 128.777 154.859 126.152C154.859 123.452 153.561 122.153 150.854 122.153H149.199ZM159.152 130.951H158.216V121.285H160.923C161.873 121.285 162.652 121.524 163.247 121.996C163.842 122.475 164.136 123.138 164.136 123.979C164.136 125.264 163.37 126.159 162.092 126.467L164.765 130.951H163.698L161.176 126.562C160.978 126.576 160.766 126.583 160.526 126.583H159.152V130.951ZM159.159 122.133V125.804H160.998C162.413 125.783 163.199 125.141 163.199 123.992C163.199 122.816 162.352 122.133 160.93 122.133H159.159ZM172.927 131.033C172.065 131.033 171.327 130.801 170.705 130.329C170.083 129.864 169.7 129.215 169.557 128.381L170.486 128.148C170.582 128.805 170.849 129.311 171.293 129.659C171.73 130.015 172.277 130.192 172.94 130.192C173.583 130.192 174.103 130.021 174.499 129.673C174.896 129.331 175.094 128.894 175.094 128.367C175.094 126.973 173.556 126.562 172.202 126.022C171.115 125.585 170.131 124.963 170.131 123.644C170.117 122.174 171.368 121.155 172.865 121.183C174.103 121.183 175.012 121.702 175.6 122.734L174.82 123.22C174.376 122.42 173.713 122.017 172.831 122.017C172.325 122.017 171.908 122.167 171.573 122.468C171.238 122.769 171.067 123.145 171.067 123.603C171.067 125.893 176.03 125.106 176.03 128.292C176.03 129.105 175.736 129.769 175.148 130.274C174.554 130.78 173.815 131.033 172.927 131.033ZM180.029 131.047C178.819 131.047 178.17 130.336 178.17 129.03V124.881H177.035V124.115H178.184V122.14L179.072 121.477V124.115H180.986V124.881H179.072V128.887C179.072 129.837 179.441 130.247 180.18 130.247C180.433 130.247 180.699 130.192 180.979 130.083L180.993 130.91C180.713 130.999 180.392 131.047 180.029 131.047ZM183.529 130.944H182.654V124.115H183.536V125.544C183.693 125.045 183.974 124.669 184.377 124.402C184.78 124.136 185.197 124.006 185.642 124.006C186.059 124.006 186.414 124.115 186.708 124.334L186.298 125.086C186.059 124.956 185.799 124.888 185.519 124.888C185.047 124.888 184.575 125.086 184.186 125.469C183.796 125.858 183.529 126.576 183.529 127.458V130.944ZM190.235 131.047C188.219 131.061 187.016 129.516 187.05 127.561C187.05 126.255 187.501 125.154 188.451 124.498C188.923 124.17 189.483 124.006 190.126 124.006C191.452 124.02 192.279 124.648 192.683 125.469C192.977 126.036 193.086 126.59 193.086 127.164C193.086 127.451 193.072 127.656 193.038 127.772H188.007C188.082 129.311 188.882 130.227 190.242 130.227C191.069 130.227 191.637 129.994 192.245 129.358L192.874 129.912C192.108 130.712 191.336 131.047 190.235 131.047ZM188.007 127.103H192.184C192.19 126.932 192.19 126.788 192.17 126.672C192.122 126.187 191.944 125.749 191.623 125.38C191.302 125.011 190.769 124.778 190.119 124.778C189.511 124.778 189.025 124.99 188.656 125.414C188.28 125.838 188.068 126.398 188.007 127.103ZM197.249 124.006C198.117 124.006 198.787 124.252 199.259 124.737C199.73 125.229 199.97 125.906 199.97 126.774V130.944H199.218L199.156 129.557C198.657 130.521 197.721 131.047 196.675 131.047C195.971 131.047 195.396 130.862 194.966 130.486C194.535 130.117 194.316 129.611 194.316 128.962C194.316 127.663 195.273 127.014 197.181 127.014H199.149V126.932C199.149 125.462 198.603 124.806 197.256 124.806C196.429 124.806 195.772 125.175 195.273 125.92L194.583 125.414C195.267 124.464 196.073 124.006 197.249 124.006ZM196.846 130.274C198.001 130.274 198.821 129.536 199.149 128.381V127.684H197.229C195.909 127.684 195.239 128.148 195.239 128.989C195.239 129.782 195.834 130.274 196.846 130.274ZM203.142 130.944H202.239L202.232 124.115H203.107V125.305C203.47 124.45 204.229 124.006 205.165 124.006C206.204 124.006 206.97 124.505 207.271 125.517C207.674 124.532 208.494 124.006 209.526 124.006C210.319 124.006 210.907 124.266 211.297 124.792C211.687 125.318 211.878 126.036 211.878 126.952V130.944H210.976V127.062C210.976 125.605 210.49 124.854 209.362 124.854C208.802 124.854 208.351 125.045 208.016 125.421C207.681 125.804 207.51 126.296 207.51 126.897V130.944H206.607V126.815C206.607 125.564 206.095 124.854 205.001 124.854C204.434 124.854 203.982 125.045 203.647 125.421C203.312 125.804 203.142 126.296 203.142 126.897V130.944ZM215.077 122.687H214.134V121.285H215.077V122.687ZM215.05 130.944H214.154V124.115H215.05V130.944ZM218.406 130.944H217.504V124.115H218.406V125.277C218.823 124.457 219.623 124.006 220.546 124.006C222.118 124.013 222.918 125.134 222.918 126.617V130.944H222.016V126.829C222.016 125.571 221.421 124.847 220.307 124.847C219.131 124.847 218.406 125.592 218.406 126.904V130.944ZM227.826 130.097C228.038 130.131 228.209 130.151 228.339 130.172C228.469 130.192 228.633 130.227 228.831 130.261C229.228 130.343 229.419 130.425 229.727 130.555C230.034 130.691 230.205 130.862 230.376 131.088C230.547 131.307 230.629 131.607 230.629 131.956C230.629 132.64 230.369 133.173 229.85 133.549C229.323 133.925 228.64 134.116 227.792 134.116C226.869 134.116 226.138 133.897 225.598 133.46C225.051 133.022 224.777 132.455 224.777 131.751C224.777 131.648 224.784 131.553 224.798 131.464L225.755 130.514C225.174 130.247 224.88 129.823 224.859 129.235C224.859 128.764 225.058 128.36 225.447 128.025C225.044 127.588 224.846 127.062 224.846 126.439C224.846 125.735 225.099 125.147 225.604 124.689C226.11 124.231 226.739 124.006 227.484 124.006C228.175 124.006 228.77 124.204 229.255 124.607L230.28 123.698L230.752 124.286L229.747 125.161C229.993 125.558 230.116 126.002 230.116 126.487C230.116 127.191 229.87 127.766 229.371 128.21C228.872 128.654 228.25 128.873 227.505 128.873C226.951 128.873 226.452 128.743 226.008 128.483C225.769 128.641 225.646 128.846 225.646 129.085C225.652 129.434 225.823 129.646 226.315 129.796C226.555 129.871 226.76 129.926 226.931 129.96C227.102 129.994 227.382 130.035 227.785 130.09C227.806 130.097 227.819 130.097 227.826 130.097ZM228.756 125.202C228.448 124.881 228.031 124.724 227.512 124.724C226.992 124.724 226.575 124.881 226.254 125.202C225.933 125.523 225.775 125.934 225.775 126.446C225.775 126.945 225.933 127.349 226.247 127.656C226.562 127.964 226.979 128.121 227.505 128.121C228.031 128.121 228.448 127.964 228.756 127.656C229.063 127.349 229.221 126.952 229.221 126.453C229.221 125.94 229.063 125.523 228.756 125.202ZM227.785 133.398C228.373 133.398 228.852 133.289 229.221 133.063C229.583 132.838 229.768 132.503 229.768 132.065C229.74 131.573 229.46 131.313 228.893 131.163C228.496 131.054 228.168 131.013 227.621 130.931C227.573 130.924 227.532 130.924 227.512 130.917C226.944 130.842 226.548 130.767 226.309 130.705L225.522 131.655C225.522 131.71 225.529 131.778 225.536 131.86C225.584 132.346 225.816 132.729 226.227 132.995C226.63 133.262 227.149 133.398 227.785 133.398Z" fill="white"/>
<defs>
<linearGradient id="paint0_linear_605_193953" x1="127.971" y1="48.9443" x2="75.8052" y2="177.83" gradientUnits="userSpaceOnUse">
<stop stop-color="#7B62F2" stop-opacity="0.08"/>
<stop offset="1" stop-color="#5031E4"/>
</linearGradient>
<linearGradient id="paint1_linear_605_193953" x1="127.214" y1="33.9443" x2="140.182" y2="220.231" gradientUnits="userSpaceOnUse">
<stop stop-color="#7B62F2"/>
<stop offset="1" stop-color="#5031E4"/>
</linearGradient>
</defs>
</svg>
