<svg width="334" height="180" viewBox="0 0 334 180" fill="none" xmlns="http://www.w3.org/2000/svg">
<g clip-path="url(#clip0_605_193987)">
<path fill-rule="evenodd" clip-rule="evenodd" d="M174.593 11.1417C164.471 11.1417 155.939 18.0257 153.4 27.4006C153.174 28.2348 152.315 28.7279 151.48 28.502C150.646 28.2761 150.153 27.4167 150.379 26.5825C153.276 15.8865 163.013 8.01193 174.593 8.01193C188.457 8.01193 199.684 19.3007 199.684 33.2111C199.684 47.1214 188.457 58.4102 174.593 58.4102C173.728 58.4102 173.028 57.7096 173.028 56.8453C173.028 55.981 173.728 55.2804 174.593 55.2804C186.715 55.2804 196.554 45.4064 196.554 33.2111C196.554 21.0158 186.715 11.1417 174.593 11.1417Z" fill="#6760F5"/>
<path fill-rule="evenodd" clip-rule="evenodd" d="M151.819 11.5881C152.43 10.977 153.421 10.977 154.032 11.5881L159.035 16.5904L156.821 18.8036L151.819 13.8012C151.208 13.1901 151.208 12.1993 151.819 11.5881Z" fill="#6760F5"/>
<path fill-rule="evenodd" clip-rule="evenodd" d="M169.025 2.5649C169.025 1.70063 169.726 1 170.59 1H179.94C180.804 1 181.505 1.70063 181.505 2.5649C181.505 3.42918 180.804 4.12981 179.94 4.12981H176.83V10.1033H173.7V4.12981H170.59C169.726 4.12981 169.025 3.42918 169.025 2.5649Z" fill="#6760F5"/>
<path fill-rule="evenodd" clip-rule="evenodd" d="M185.46 21.4564C186.071 22.0675 186.071 23.0584 185.46 23.6695L175.331 33.7985C174.72 34.4096 173.729 34.4096 173.118 33.7985C172.507 33.1873 172.507 32.1965 173.118 31.5853L183.247 21.4564C183.858 20.8453 184.849 20.8453 185.46 21.4564Z" fill="#6760F5"/>
<path fill-rule="evenodd" clip-rule="evenodd" d="M135 34.5107C135 33.6464 135.701 32.9458 136.565 32.9458H163.316C164.18 32.9458 164.881 33.6464 164.881 34.5107C164.881 35.375 164.18 36.0756 163.316 36.0756H136.565C135.701 36.0756 135 35.375 135 34.5107ZM143.051 44.1202C143.051 43.256 143.752 42.5553 144.616 42.5553H163.316C164.18 42.5553 164.881 43.256 164.881 44.1202C164.881 44.9845 164.18 45.6851 163.316 45.6851H144.616C143.752 45.6851 143.051 44.9845 143.051 44.1202ZM150.064 53.47C150.064 52.6058 150.764 51.9051 151.628 51.9051H163.316C164.18 51.9051 164.881 52.6058 164.881 53.47C164.881 54.3343 164.18 55.0349 163.316 55.0349H151.628C150.764 55.0349 150.064 54.3343 150.064 53.47Z" fill="url(#paint0_linear_605_193987)" fill-opacity="0.6"/>
<rect x="3" y="34" width="330" height="145" rx="16" fill="url(#paint1_linear_605_193987)" fill-opacity="0.1"/>
<path d="M114.5 34H19C10.1634 34 3 41.1634 3 50V163C3 171.837 10.1634 179 19 179H315C323.837 179 331 171.837 331 163V50C331 41.1634 323.837 34 315 34H221.5" stroke="url(#paint2_linear_605_193987)" stroke-width="3" stroke-linecap="round"/>
<path d="M48.1709 131.089C47.3096 131.089 46.5713 130.856 45.9492 130.385C45.3271 129.92 44.9443 129.271 44.8008 128.437L45.7305 128.204C45.8262 128.86 46.0928 129.366 46.5371 129.715C46.9746 130.07 47.5215 130.248 48.1846 130.248C48.8271 130.248 49.3467 130.077 49.7432 129.729C50.1396 129.387 50.3379 128.949 50.3379 128.423C50.3379 127.028 48.7998 126.618 47.4463 126.078C46.3594 125.641 45.375 125.019 45.375 123.699C45.3613 122.229 46.6123 121.211 48.1094 121.238C49.3467 121.238 50.2559 121.758 50.8438 122.79L50.0645 123.275C49.6201 122.476 48.957 122.072 48.0752 122.072C47.5693 122.072 47.1523 122.223 46.8174 122.523C46.4824 122.824 46.3115 123.2 46.3115 123.658C46.3115 125.948 51.2744 125.162 51.2744 128.348C51.2744 129.161 50.9805 129.824 50.3926 130.33C49.7979 130.836 49.0596 131.089 48.1709 131.089ZM55.1572 131.103C54.3916 131.103 53.8105 130.863 53.4141 130.378C53.0107 129.899 52.8057 129.271 52.792 128.491V124.171H53.6875V128.286C53.6875 129.544 54.2822 130.262 55.3965 130.262C56.5654 130.262 57.2969 129.517 57.2969 128.204V124.171H58.1924V131H57.2969V129.838C56.8799 130.658 56.0801 131.103 55.1572 131.103ZM64.0439 131.103C63.5039 131.103 63.0117 130.959 62.5742 130.672C62.1299 130.385 61.8018 129.988 61.5898 129.489V131H60.6602V121.341H61.5898V125.675C61.8018 125.176 62.1299 124.779 62.5674 124.492C62.998 124.205 63.4902 124.062 64.0303 124.062C64.625 124.062 65.1514 124.219 65.5957 124.54C66.04 124.861 66.375 125.278 66.6006 125.805C66.8262 126.331 66.9355 126.926 66.9355 127.575C66.9355 128.888 66.4912 129.988 65.6025 130.624C65.1582 130.945 64.6387 131.103 64.0439 131.103ZM63.832 130.262C64.5225 130.262 65.0625 130.009 65.4521 129.51C65.835 129.011 66.0264 128.361 66.0264 127.575C66.0264 126.789 65.835 126.146 65.4521 125.641C65.0625 125.142 64.5225 124.889 63.832 124.889C63.1348 124.889 62.5742 125.142 62.1504 125.647C61.7266 126.153 61.5146 126.796 61.5146 127.575C61.5146 128.361 61.7266 129.004 62.1504 129.503C62.5674 130.009 63.1279 130.262 63.832 130.262ZM72.4795 127.097H68.7881V126.393H72.4795V127.097ZM76.8955 131.103C76.2324 131.103 75.6514 130.932 75.1523 130.597C74.6465 130.262 74.3047 129.831 74.127 129.305L74.8584 128.983C75.002 129.373 75.2412 129.701 75.5898 129.954C75.9316 130.214 76.3555 130.344 76.8545 130.344C77.8594 130.344 78.4336 129.831 78.4336 129.086C78.4336 128.163 77.4424 127.992 76.4512 127.739C75.46 127.493 74.4688 127.179 74.4688 125.941C74.4688 125.354 74.6875 124.896 75.1318 124.561C75.5693 124.226 76.1299 124.062 76.8066 124.062C77.873 124.062 78.7207 124.581 79.2061 125.49L78.5088 125.866C78.126 125.148 77.5518 124.793 76.7793 124.793C75.9043 124.793 75.3369 125.217 75.3369 125.825C75.3369 127.514 79.3223 126.434 79.3223 129.045C79.3223 129.701 79.0967 130.207 78.6387 130.562C78.1807 130.925 77.5996 131.103 76.8955 131.103ZM83.7861 131.103C81.7695 131.116 80.5664 129.571 80.6006 127.616C80.6006 126.311 81.0518 125.21 82.002 124.554C82.4736 124.226 83.0342 124.062 83.6768 124.062C85.0029 124.075 85.8301 124.704 86.2334 125.524C86.5273 126.092 86.6367 126.646 86.6367 127.22C86.6367 127.507 86.623 127.712 86.5889 127.828H81.5576C81.6328 129.366 82.4326 130.282 83.793 130.282C84.6201 130.282 85.1875 130.05 85.7959 129.414L86.4248 129.968C85.6592 130.768 84.8867 131.103 83.7861 131.103ZM81.5576 127.158H85.7344C85.7412 126.987 85.7412 126.844 85.7207 126.728C85.6729 126.242 85.4951 125.805 85.1738 125.436C84.8525 125.066 84.3193 124.834 83.6699 124.834C83.0615 124.834 82.5762 125.046 82.207 125.47C81.8311 125.894 81.6191 126.454 81.5576 127.158ZM91.0117 131.103C89.0498 131.103 87.9355 129.53 87.9355 127.596C87.9355 126.687 88.2021 125.825 88.6943 125.155C89.1865 124.485 90.0068 124.062 90.998 124.062C92.2559 124.062 93.2471 124.718 93.7461 125.941L92.8848 126.276C92.5566 125.408 91.8662 124.889 90.998 124.889C89.5283 124.889 88.8516 126.201 88.8516 127.596C88.8516 128.573 89.1318 129.38 89.7949 129.893C90.1299 130.152 90.5332 130.282 91.0049 130.282C91.8867 130.282 92.5771 129.763 92.8506 128.908L93.6777 129.223C93.2607 130.405 92.2695 131.103 91.0117 131.103ZM98.0664 131.103C97.1094 131.103 96.3232 130.761 95.7012 130.084C95.0791 129.407 94.7715 128.566 94.7715 127.568C94.7305 125.647 96.166 124.034 98.0664 124.062C99.9805 124.034 101.423 125.647 101.389 127.568C101.423 129.503 99.9805 131.137 98.0664 131.103ZM98.0664 130.316C98.791 130.316 99.3721 130.05 99.8027 129.523C100.233 128.997 100.452 128.348 100.452 127.568C100.452 126.796 100.233 126.146 99.8027 125.627C99.3721 125.114 98.791 124.854 98.0664 124.854C97.3486 124.854 96.7744 125.114 96.3506 125.627C95.9199 126.14 95.708 126.789 95.708 127.568C95.708 128.354 95.9199 129.004 96.3506 129.53C96.7744 130.057 97.3486 130.316 98.0664 130.316ZM104.15 131H103.248V124.171H104.15V125.333C104.567 124.513 105.367 124.062 106.29 124.062C107.862 124.068 108.662 125.189 108.662 126.673V131H107.76V126.885C107.76 125.627 107.165 124.902 106.051 124.902C104.875 124.902 104.15 125.647 104.15 126.96V131ZM113.42 131.103C112.518 131.103 111.718 130.706 111.198 130.07C110.679 129.435 110.371 128.539 110.371 127.575C110.371 126.29 110.877 125.176 111.813 124.54C112.278 124.219 112.812 124.062 113.406 124.062C113.946 124.062 114.432 124.205 114.876 124.492C115.32 124.779 115.642 125.176 115.854 125.675V121.341H116.77V131H115.922L115.888 129.448C115.676 129.961 115.354 130.364 114.91 130.658C114.466 130.952 113.974 131.103 113.42 131.103ZM111.93 129.51C112.36 130.022 112.921 130.282 113.618 130.282C114.315 130.282 114.876 130.029 115.293 129.517C115.71 129.011 115.922 128.361 115.922 127.575C115.922 126.796 115.71 126.153 115.293 125.647C114.876 125.142 114.315 124.889 113.618 124.889C112.921 124.889 112.36 125.142 111.93 125.654C111.499 126.167 111.287 126.803 111.287 127.575C111.287 128.354 111.499 128.997 111.93 129.51ZM125.451 130.152C125.663 130.187 125.834 130.207 125.964 130.228C126.094 130.248 126.258 130.282 126.456 130.316C126.853 130.398 127.044 130.48 127.352 130.61C127.659 130.747 127.83 130.918 128.001 131.144C128.172 131.362 128.254 131.663 128.254 132.012C128.254 132.695 127.994 133.229 127.475 133.604C126.948 133.98 126.265 134.172 125.417 134.172C124.494 134.172 123.763 133.953 123.223 133.516C122.676 133.078 122.402 132.511 122.402 131.807C122.402 131.704 122.409 131.608 122.423 131.52L123.38 130.569C122.799 130.303 122.505 129.879 122.484 129.291C122.484 128.819 122.683 128.416 123.072 128.081C122.669 127.644 122.471 127.117 122.471 126.495C122.471 125.791 122.724 125.203 123.229 124.745C123.735 124.287 124.364 124.062 125.109 124.062C125.8 124.062 126.395 124.26 126.88 124.663L127.905 123.754L128.377 124.342L127.372 125.217C127.618 125.613 127.741 126.058 127.741 126.543C127.741 127.247 127.495 127.821 126.996 128.266C126.497 128.71 125.875 128.929 125.13 128.929C124.576 128.929 124.077 128.799 123.633 128.539C123.394 128.696 123.271 128.901 123.271 129.141C123.277 129.489 123.448 129.701 123.94 129.852C124.18 129.927 124.385 129.981 124.556 130.016C124.727 130.05 125.007 130.091 125.41 130.146C125.431 130.152 125.444 130.152 125.451 130.152ZM126.381 125.258C126.073 124.937 125.656 124.779 125.137 124.779C124.617 124.779 124.2 124.937 123.879 125.258C123.558 125.579 123.4 125.989 123.4 126.502C123.4 127.001 123.558 127.404 123.872 127.712C124.187 128.02 124.604 128.177 125.13 128.177C125.656 128.177 126.073 128.02 126.381 127.712C126.688 127.404 126.846 127.008 126.846 126.509C126.846 125.996 126.688 125.579 126.381 125.258ZM125.41 133.454C125.998 133.454 126.477 133.345 126.846 133.119C127.208 132.894 127.393 132.559 127.393 132.121C127.365 131.629 127.085 131.369 126.518 131.219C126.121 131.109 125.793 131.068 125.246 130.986C125.198 130.979 125.157 130.979 125.137 130.973C124.569 130.897 124.173 130.822 123.934 130.761L123.147 131.711C123.147 131.766 123.154 131.834 123.161 131.916C123.209 132.401 123.441 132.784 123.852 133.051C124.255 133.317 124.774 133.454 125.41 133.454ZM131.214 131.103C130.284 131.103 129.956 130.59 129.956 129.558V121.341H130.858V129.325C130.858 129.954 130.988 130.289 131.61 130.289C131.754 130.289 131.938 130.269 132.164 130.221L132.178 130.993C131.822 131.068 131.501 131.103 131.214 131.103ZM136.026 124.062C136.895 124.062 137.564 124.308 138.036 124.793C138.508 125.285 138.747 125.962 138.747 126.83V131H137.995L137.934 129.612C137.435 130.576 136.498 131.103 135.452 131.103C134.748 131.103 134.174 130.918 133.743 130.542C133.312 130.173 133.094 129.667 133.094 129.018C133.094 127.719 134.051 127.069 135.958 127.069H137.927V126.987C137.927 125.518 137.38 124.861 136.033 124.861C135.206 124.861 134.55 125.23 134.051 125.976L133.36 125.47C134.044 124.52 134.851 124.062 136.026 124.062ZM135.623 130.33C136.778 130.33 137.599 129.592 137.927 128.437V127.739H136.006C134.687 127.739 134.017 128.204 134.017 129.045C134.017 129.838 134.611 130.33 135.623 130.33ZM143.04 131.103C142.377 131.103 141.796 130.932 141.297 130.597C140.791 130.262 140.449 129.831 140.271 129.305L141.003 128.983C141.146 129.373 141.386 129.701 141.734 129.954C142.076 130.214 142.5 130.344 142.999 130.344C144.004 130.344 144.578 129.831 144.578 129.086C144.578 128.163 143.587 127.992 142.596 127.739C141.604 127.493 140.613 127.179 140.613 125.941C140.613 125.354 140.832 124.896 141.276 124.561C141.714 124.226 142.274 124.062 142.951 124.062C144.018 124.062 144.865 124.581 145.351 125.49L144.653 125.866C144.271 125.148 143.696 124.793 142.924 124.793C142.049 124.793 141.481 125.217 141.481 125.825C141.481 127.514 145.467 126.434 145.467 129.045C145.467 129.701 145.241 130.207 144.783 130.562C144.325 130.925 143.744 131.103 143.04 131.103ZM149.384 131.103C148.721 131.103 148.14 130.932 147.641 130.597C147.135 130.262 146.793 129.831 146.615 129.305L147.347 128.983C147.49 129.373 147.729 129.701 148.078 129.954C148.42 130.214 148.844 130.344 149.343 130.344C150.348 130.344 150.922 129.831 150.922 129.086C150.922 128.163 149.931 127.992 148.939 127.739C147.948 127.493 146.957 127.179 146.957 125.941C146.957 125.354 147.176 124.896 147.62 124.561C148.058 124.226 148.618 124.062 149.295 124.062C150.361 124.062 151.209 124.581 151.694 125.49L150.997 125.866C150.614 125.148 150.04 124.793 149.268 124.793C148.393 124.793 147.825 125.217 147.825 125.825C147.825 127.514 151.811 126.434 151.811 129.045C151.811 129.701 151.585 130.207 151.127 130.562C150.669 130.925 150.088 131.103 149.384 131.103ZM157.327 127.097H153.636V126.393H157.327V127.097ZM161.695 131.103C160.485 131.103 159.836 130.392 159.836 129.086V124.937H158.701V124.171H159.85V122.195L160.738 121.532V124.171H162.652V124.937H160.738V128.942C160.738 129.893 161.107 130.303 161.846 130.303C162.099 130.303 162.365 130.248 162.646 130.139L162.659 130.966C162.379 131.055 162.058 131.103 161.695 131.103ZM167.055 131.103C166.098 131.103 165.312 130.761 164.689 130.084C164.067 129.407 163.76 128.566 163.76 127.568C163.719 125.647 165.154 124.034 167.055 124.062C168.969 124.034 170.411 125.647 170.377 127.568C170.411 129.503 168.969 131.137 167.055 131.103ZM167.055 130.316C167.779 130.316 168.36 130.05 168.791 129.523C169.222 128.997 169.44 128.348 169.44 127.568C169.44 126.796 169.222 126.146 168.791 125.627C168.36 125.114 167.779 124.854 167.055 124.854C166.337 124.854 165.763 125.114 165.339 125.627C164.908 126.14 164.696 126.789 164.696 127.568C164.696 128.354 164.908 129.004 165.339 129.53C165.763 130.057 166.337 130.316 167.055 130.316ZM175.866 127.097H172.175V126.393H175.866V127.097ZM180.891 130.152C181.103 130.187 181.273 130.207 181.403 130.228C181.533 130.248 181.697 130.282 181.896 130.316C182.292 130.398 182.483 130.48 182.791 130.61C183.099 130.747 183.27 130.918 183.44 131.144C183.611 131.362 183.693 131.663 183.693 132.012C183.693 132.695 183.434 133.229 182.914 133.604C182.388 133.98 181.704 134.172 180.856 134.172C179.934 134.172 179.202 133.953 178.662 133.516C178.115 133.078 177.842 132.511 177.842 131.807C177.842 131.704 177.849 131.608 177.862 131.52L178.819 130.569C178.238 130.303 177.944 129.879 177.924 129.291C177.924 128.819 178.122 128.416 178.512 128.081C178.108 127.644 177.91 127.117 177.91 126.495C177.91 125.791 178.163 125.203 178.669 124.745C179.175 124.287 179.804 124.062 180.549 124.062C181.239 124.062 181.834 124.26 182.319 124.663L183.345 123.754L183.816 124.342L182.812 125.217C183.058 125.613 183.181 126.058 183.181 126.543C183.181 127.247 182.935 127.821 182.436 128.266C181.937 128.71 181.314 128.929 180.569 128.929C180.016 128.929 179.517 128.799 179.072 128.539C178.833 128.696 178.71 128.901 178.71 129.141C178.717 129.489 178.888 129.701 179.38 129.852C179.619 129.927 179.824 129.981 179.995 130.016C180.166 130.05 180.446 130.091 180.85 130.146C180.87 130.152 180.884 130.152 180.891 130.152ZM181.82 125.258C181.513 124.937 181.096 124.779 180.576 124.779C180.057 124.779 179.64 124.937 179.318 125.258C178.997 125.579 178.84 125.989 178.84 126.502C178.84 127.001 178.997 127.404 179.312 127.712C179.626 128.02 180.043 128.177 180.569 128.177C181.096 128.177 181.513 128.02 181.82 127.712C182.128 127.404 182.285 127.008 182.285 126.509C182.285 125.996 182.128 125.579 181.82 125.258ZM180.85 133.454C181.438 133.454 181.916 133.345 182.285 133.119C182.647 132.894 182.832 132.559 182.832 132.121C182.805 131.629 182.524 131.369 181.957 131.219C181.561 131.109 181.232 131.068 180.686 130.986C180.638 130.979 180.597 130.979 180.576 130.973C180.009 130.897 179.612 130.822 179.373 130.761L178.587 131.711C178.587 131.766 178.594 131.834 178.601 131.916C178.648 132.401 178.881 132.784 179.291 133.051C179.694 133.317 180.214 133.454 180.85 133.454ZM186.653 131.103C185.724 131.103 185.396 130.59 185.396 129.558V121.341H186.298V129.325C186.298 129.954 186.428 130.289 187.05 130.289C187.193 130.289 187.378 130.269 187.604 130.221L187.617 130.993C187.262 131.068 186.94 131.103 186.653 131.103ZM191.466 124.062C192.334 124.062 193.004 124.308 193.476 124.793C193.947 125.285 194.187 125.962 194.187 126.83V131H193.435L193.373 129.612C192.874 130.576 191.938 131.103 190.892 131.103C190.188 131.103 189.613 130.918 189.183 130.542C188.752 130.173 188.533 129.667 188.533 129.018C188.533 127.719 189.49 127.069 191.397 127.069H193.366V126.987C193.366 125.518 192.819 124.861 191.473 124.861C190.646 124.861 189.989 125.23 189.49 125.976L188.8 125.47C189.483 124.52 190.29 124.062 191.466 124.062ZM191.062 130.33C192.218 130.33 193.038 129.592 193.366 128.437V127.739H191.445C190.126 127.739 189.456 128.204 189.456 129.045C189.456 129.838 190.051 130.33 191.062 130.33ZM198.479 131.103C197.816 131.103 197.235 130.932 196.736 130.597C196.23 130.262 195.889 129.831 195.711 129.305L196.442 128.983C196.586 129.373 196.825 129.701 197.174 129.954C197.516 130.214 197.939 130.344 198.438 130.344C199.443 130.344 200.018 129.831 200.018 129.086C200.018 128.163 199.026 127.992 198.035 127.739C197.044 127.493 196.053 127.179 196.053 125.941C196.053 125.354 196.271 124.896 196.716 124.561C197.153 124.226 197.714 124.062 198.391 124.062C199.457 124.062 200.305 124.581 200.79 125.49L200.093 125.866C199.71 125.148 199.136 124.793 198.363 124.793C197.488 124.793 196.921 125.217 196.921 125.825C196.921 127.514 200.906 126.434 200.906 129.045C200.906 129.701 200.681 130.207 200.223 130.562C199.765 130.925 199.184 131.103 198.479 131.103ZM204.823 131.103C204.16 131.103 203.579 130.932 203.08 130.597C202.574 130.262 202.232 129.831 202.055 129.305L202.786 128.983C202.93 129.373 203.169 129.701 203.518 129.954C203.859 130.214 204.283 130.344 204.782 130.344C205.787 130.344 206.361 129.831 206.361 129.086C206.361 128.163 205.37 127.992 204.379 127.739C203.388 127.493 202.396 127.179 202.396 125.941C202.396 125.354 202.615 124.896 203.06 124.561C203.497 124.226 204.058 124.062 204.734 124.062C205.801 124.062 206.648 124.581 207.134 125.49L206.437 125.866C206.054 125.148 205.479 124.793 204.707 124.793C203.832 124.793 203.265 125.217 203.265 125.825C203.265 127.514 207.25 126.434 207.25 129.045C207.25 129.701 207.024 130.207 206.566 130.562C206.108 130.925 205.527 131.103 204.823 131.103ZM214.797 131.103C213.587 131.103 212.938 130.392 212.938 129.086V124.937H211.803V124.171H212.951V122.195L213.84 121.532V124.171H215.754V124.937H213.84V128.942C213.84 129.893 214.209 130.303 214.947 130.303C215.2 130.303 215.467 130.248 215.747 130.139L215.761 130.966C215.48 131.055 215.159 131.103 214.797 131.103ZM218.297 131H217.422V124.171H218.304V125.6C218.461 125.101 218.741 124.725 219.145 124.458C219.548 124.191 219.965 124.062 220.409 124.062C220.826 124.062 221.182 124.171 221.476 124.39L221.065 125.142C220.826 125.012 220.566 124.943 220.286 124.943C219.814 124.943 219.343 125.142 218.953 125.524C218.563 125.914 218.297 126.632 218.297 127.514V131ZM225.194 124.062C226.062 124.062 226.732 124.308 227.204 124.793C227.676 125.285 227.915 125.962 227.915 126.83V131H227.163L227.102 129.612C226.603 130.576 225.666 131.103 224.62 131.103C223.916 131.103 223.342 130.918 222.911 130.542C222.48 130.173 222.262 129.667 222.262 129.018C222.262 127.719 223.219 127.069 225.126 127.069H227.095V126.987C227.095 125.518 226.548 124.861 225.201 124.861C224.374 124.861 223.718 125.23 223.219 125.976L222.528 125.47C223.212 124.52 224.019 124.062 225.194 124.062ZM224.791 130.33C225.946 130.33 226.767 129.592 227.095 128.437V127.739H225.174C223.854 127.739 223.185 128.204 223.185 129.045C223.185 129.838 223.779 130.33 224.791 130.33ZM231.08 131H230.178V124.171H231.08V125.333C231.497 124.513 232.297 124.062 233.22 124.062C234.792 124.068 235.592 125.189 235.592 126.673V131H234.689V126.885C234.689 125.627 234.095 124.902 232.98 124.902C231.805 124.902 231.08 125.647 231.08 126.96V131ZM239.892 131.103C239.229 131.103 238.647 130.932 238.148 130.597C237.643 130.262 237.301 129.831 237.123 129.305L237.854 128.983C237.998 129.373 238.237 129.701 238.586 129.954C238.928 130.214 239.352 130.344 239.851 130.344C240.855 130.344 241.43 129.831 241.43 129.086C241.43 128.163 240.438 127.992 239.447 127.739C238.456 127.493 237.465 127.179 237.465 125.941C237.465 125.354 237.684 124.896 238.128 124.561C238.565 124.226 239.126 124.062 239.803 124.062C240.869 124.062 241.717 124.581 242.202 125.49L241.505 125.866C241.122 125.148 240.548 124.793 239.775 124.793C238.9 124.793 238.333 125.217 238.333 125.825C238.333 127.514 242.318 126.434 242.318 129.045C242.318 129.701 242.093 130.207 241.635 130.562C241.177 130.925 240.596 131.103 239.892 131.103ZM245.114 131H244.212L244.205 124.171H245.08V125.36C245.442 124.506 246.201 124.062 247.138 124.062C248.177 124.062 248.942 124.561 249.243 125.572C249.646 124.588 250.467 124.062 251.499 124.062C252.292 124.062 252.88 124.321 253.27 124.848C253.659 125.374 253.851 126.092 253.851 127.008V131H252.948V127.117C252.948 125.661 252.463 124.909 251.335 124.909C250.774 124.909 250.323 125.101 249.988 125.477C249.653 125.859 249.482 126.352 249.482 126.953V131H248.58V126.871C248.58 125.62 248.067 124.909 246.974 124.909C246.406 124.909 245.955 125.101 245.62 125.477C245.285 125.859 245.114 126.352 245.114 126.953V131ZM257.05 122.742H256.106V121.341H257.05V122.742ZM257.022 131H256.127V124.171H257.022V131ZM261.507 131.103C260.844 131.103 260.263 130.932 259.764 130.597C259.258 130.262 258.916 129.831 258.738 129.305L259.47 128.983C259.613 129.373 259.853 129.701 260.201 129.954C260.543 130.214 260.967 130.344 261.466 130.344C262.471 130.344 263.045 129.831 263.045 129.086C263.045 128.163 262.054 127.992 261.062 127.739C260.071 127.493 259.08 127.179 259.08 125.941C259.08 125.354 259.299 124.896 259.743 124.561C260.181 124.226 260.741 124.062 261.418 124.062C262.484 124.062 263.332 124.581 263.817 125.49L263.12 125.866C262.737 125.148 262.163 124.793 261.391 124.793C260.516 124.793 259.948 125.217 259.948 125.825C259.948 127.514 263.934 126.434 263.934 129.045C263.934 129.701 263.708 130.207 263.25 130.562C262.792 130.925 262.211 131.103 261.507 131.103ZM267.851 131.103C267.188 131.103 266.606 130.932 266.107 130.597C265.602 130.262 265.26 129.831 265.082 129.305L265.813 128.983C265.957 129.373 266.196 129.701 266.545 129.954C266.887 130.214 267.311 130.344 267.81 130.344C268.814 130.344 269.389 129.831 269.389 129.086C269.389 128.163 268.397 127.992 267.406 127.739C266.415 127.493 265.424 127.179 265.424 125.941C265.424 125.354 265.643 124.896 266.087 124.561C266.524 124.226 267.085 124.062 267.762 124.062C268.828 124.062 269.676 124.581 270.161 125.49L269.464 125.866C269.081 125.148 268.507 124.793 267.734 124.793C266.859 124.793 266.292 125.217 266.292 125.825C266.292 127.514 270.277 126.434 270.277 129.045C270.277 129.701 270.052 130.207 269.594 130.562C269.136 130.925 268.555 131.103 267.851 131.103ZM273.087 122.742H272.144V121.341H273.087V122.742ZM273.06 131H272.164V124.171H273.06V131ZM278.207 131.103C277.25 131.103 276.464 130.761 275.842 130.084C275.22 129.407 274.912 128.566 274.912 127.568C274.871 125.647 276.307 124.034 278.207 124.062C280.121 124.034 281.563 125.647 281.529 127.568C281.563 129.503 280.121 131.137 278.207 131.103ZM278.207 130.316C278.932 130.316 279.513 130.05 279.943 129.523C280.374 128.997 280.593 128.348 280.593 127.568C280.593 126.796 280.374 126.146 279.943 125.627C279.513 125.114 278.932 124.854 278.207 124.854C277.489 124.854 276.915 125.114 276.491 125.627C276.061 126.14 275.849 126.789 275.849 127.568C275.849 128.354 276.061 129.004 276.491 129.53C276.915 130.057 277.489 130.316 278.207 130.316ZM284.291 131H283.389V124.171H284.291V125.333C284.708 124.513 285.508 124.062 286.431 124.062C288.003 124.068 288.803 125.189 288.803 126.673V131H287.9V126.885C287.9 125.627 287.306 124.902 286.191 124.902C285.016 124.902 284.291 125.647 284.291 126.96V131Z" fill="white"/>
<path d="M120.467 105H112.088V91.2012H114.568V102.656H120.467V105ZM128.27 104.785C127.635 105.059 126.951 105.195 126.219 105.195C125.486 105.195 124.803 105.059 124.168 104.785C123.533 104.512 123.006 104.141 122.586 103.682C121.727 102.754 121.219 101.475 121.219 100.098C121.219 98.2617 122.059 96.6602 123.602 95.7324C124.373 95.2734 125.242 95.0391 126.219 95.0391C127.195 95.0391 128.074 95.2734 128.846 95.7324C129.617 96.1914 130.203 96.8066 130.613 97.5684C131.014 98.3398 131.219 99.1797 131.219 100.098C131.219 102.178 130.115 103.984 128.27 104.785ZM126.219 103.145C127.068 103.145 127.693 102.852 128.113 102.275C128.533 101.699 128.738 100.977 128.738 100.098C128.768 98.4766 127.996 97.1191 126.219 97.0996C125.369 97.0996 124.744 97.3828 124.324 97.9395C123.904 98.5059 123.699 99.2285 123.699 100.098C123.699 101.221 123.992 102.119 124.773 102.705C125.164 102.998 125.643 103.145 126.219 103.145ZM136.707 105.039H134.559L131.561 95.2441H134.1L135.76 101.357L137.605 95.2441H139.646L141.482 101.338L143.162 95.2441H145.701L142.684 105H140.545L138.621 98.6035L136.707 105.039ZM152.703 100.039H147V98.2422H152.703V100.039ZM164.236 105H155.857V91.2012H158.338V102.656H164.236V105ZM169.607 95.0391C170.916 95.0391 171.951 95.4102 172.703 96.1523C173.455 96.8945 173.826 97.8711 173.826 99.082V105H171.863L171.717 103.701C171.414 104.18 170.984 104.551 170.418 104.805C169.842 105.068 169.266 105.195 168.67 105.195C167.635 105.195 166.785 104.912 166.121 104.346C165.457 103.779 165.125 102.998 165.125 102.002C165.125 99.8828 166.814 99.1797 169.012 99.1797H171.658C171.629 98.4277 171.473 97.9004 171.189 97.5879C170.906 97.2754 170.379 97.1191 169.627 97.1191C168.582 97.1191 167.801 97.6855 167.332 98.4961L165.506 97.1777C166.551 95.752 167.918 95.0391 169.607 95.0391ZM169.148 103.184C169.842 103.184 170.418 102.969 170.877 102.539C171.326 102.109 171.59 101.592 171.668 100.977V100.898H169.148C168.123 100.898 167.566 101.416 167.566 102.08C167.566 102.744 168.123 103.184 169.148 103.184ZM179.764 105.195C178.816 105.195 178.064 104.932 177.527 104.414C176.99 103.896 176.717 103.193 176.717 102.305V97.2363H175.145V95.2441H176.756V92.8223L179.1 91.123V95.2441H181.541V97.2363H179.1V101.885C179.1 102.695 179.461 103.096 180.184 103.096C180.604 103.096 181.062 102.979 181.541 102.744V104.902C181.023 105.098 180.438 105.195 179.764 105.195ZM187.723 105.195C186.092 105.195 184.773 104.6 183.992 103.652C183.201 102.715 182.781 101.494 182.781 100.156C182.781 98.8574 183.182 97.627 183.934 96.6504C184.676 95.6738 185.975 95.0391 187.566 95.0391C189.598 95.0586 190.857 96.0156 191.482 97.2852C191.932 98.1641 192.088 99.0332 192.088 99.9609C192.088 100.42 192.059 100.732 192 100.898H185.301C185.525 102.324 186.346 103.037 187.742 103.037C188.689 103.037 189.471 102.695 190.086 102.002L191.727 103.438C190.672 104.609 189.334 105.195 187.723 105.195ZM185.301 99.1797H189.744C189.744 98.9453 189.715 98.7402 189.666 98.5645C189.432 97.5879 188.611 97.041 187.547 97.041C186.307 97.041 185.564 97.7539 185.301 99.1797ZM196.473 105H194.09V95.2441H196.473V96.377C197.215 95.4785 198.289 95.0391 199.334 95.0391C200.555 95.0391 201.531 95.5371 202.078 96.3281C202.625 97.1191 202.898 98.0762 202.898 99.1406V105H200.516V99.4434C200.516 98.125 199.832 97.2363 198.65 97.2363C197.273 97.2363 196.473 98.0078 196.473 99.6582V105ZM209.324 105.195C207.791 105.195 206.512 104.58 205.76 103.633C205.008 102.686 204.598 101.455 204.598 100.137C204.598 98.8184 204.998 97.6074 205.75 96.6309C206.502 95.6641 207.771 95.0391 209.305 95.0391C211.287 95.0391 212.791 96.0156 213.523 97.9199L211.258 98.7988C210.994 97.832 210.252 97.1973 209.305 97.1973C207.654 97.1973 207.02 98.6816 207.02 100.137C207.02 101.621 207.654 103.037 209.305 103.037C210.242 103.037 210.994 102.422 211.258 101.484L213.426 102.305C212.781 104.121 211.248 105.195 209.324 105.195ZM218.172 109.199H215.574L217.371 104.736L213.553 95.2441H216.17L218.631 102.021L221.131 95.2441H223.748L218.172 109.199Z" fill="white"/>
</g>
<defs>
<linearGradient id="paint0_linear_605_193987" x1="144.465" y1="32.9458" x2="182.408" y2="108.508" gradientUnits="userSpaceOnUse">
<stop stop-color="#7B62F2"/>
<stop offset="1" stop-color="#5031E4"/>
</linearGradient>
<linearGradient id="paint1_linear_605_193987" x1="127.971" y1="50" x2="75.8052" y2="178.886" gradientUnits="userSpaceOnUse">
<stop stop-color="#7B62F2" stop-opacity="0.08"/>
<stop offset="1" stop-color="#5031E4"/>
</linearGradient>
<linearGradient id="paint2_linear_605_193987" x1="127.214" y1="34" x2="140.362" y2="221.568" gradientUnits="userSpaceOnUse">
<stop stop-color="#7B62F2"/>
<stop offset="1" stop-color="#5031E4"/>
</linearGradient>
<clipPath id="clip0_605_193987">
<rect width="334" height="180" fill="white"/>
</clipPath>
</defs>
</svg>
