<svg width="334" height="180" viewBox="0 0 334 180" fill="none" xmlns="http://www.w3.org/2000/svg">
<g opacity="0.6">
<mask id="path-1-inside-1_605_193972" fill="white">
<path d="M135.879 55.0485H122.117C120.494 55.0485 118.939 54.4041 117.791 53.2571C116.644 52.11 116 50.5542 116 48.932V6.11651C116 4.49431 116.644 2.93855 117.791 1.79148C118.939 0.644415 120.494 0 122.117 0H177.165C178.787 0 180.343 0.644415 181.49 1.79148C182.637 2.93855 183.282 4.49431 183.282 6.11651V7.64563"/>
</mask>
<path d="M135.879 58.0485C137.535 58.0485 138.879 56.7054 138.879 55.0485C138.879 53.3917 137.535 52.0485 135.879 52.0485V58.0485ZM116 48.932H113H116ZM122.117 0V-3V0ZM177.165 0V-3V0ZM180.282 7.64563C180.282 9.30249 181.625 10.6456 183.282 10.6456C184.938 10.6456 186.282 9.30249 186.282 7.64563H180.282ZM135.879 52.0485H122.117V58.0485H135.879V52.0485ZM122.117 52.0485C121.29 52.0485 120.497 51.7202 119.913 51.1357L115.67 55.3784C117.38 57.0881 119.699 58.0485 122.117 58.0485V52.0485ZM119.913 51.1357C119.328 50.5513 119 49.7586 119 48.932H113C113 51.3499 113.96 53.6687 115.67 55.3784L119.913 51.1357ZM119 48.932V6.11651H113V48.932H119ZM119 6.11651C119 5.28996 119.328 4.49726 119.913 3.9128L115.67 -0.329838C113.96 1.37984 113 3.69866 113 6.11651H119ZM119.913 3.9128C120.497 3.32835 121.29 3 122.117 3V-3C119.699 -3 117.38 -2.03951 115.67 -0.329838L119.913 3.9128ZM122.117 3H177.165V-3H122.117V3ZM177.165 3C177.992 3 178.784 3.32835 179.369 3.9128L183.611 -0.329838C181.902 -2.03951 179.583 -3 177.165 -3V3ZM179.369 3.9128C179.953 4.49726 180.282 5.28995 180.282 6.11651H186.282C186.282 3.69866 185.321 1.37984 183.611 -0.329838L179.369 3.9128ZM180.282 6.11651V7.64563H186.282V6.11651H180.282Z" fill="#6760F5" mask="url(#path-1-inside-1_605_193972)"/>
</g>
<path opacity="0.4" d="M125.176 10.7065H174.108" stroke="#6760F5" stroke-width="3" stroke-miterlimit="10" stroke-linecap="round"/>
<path opacity="0.4" d="M125.176 21.4058H163.404" stroke="#6760F5" stroke-width="3" stroke-miterlimit="10" stroke-linecap="round"/>
<path opacity="0.4" d="M125.176 32.1123H155.758" stroke="#6760F5" stroke-width="3" stroke-miterlimit="10" stroke-linecap="round"/>
<path opacity="0.4" d="M125.176 42.814H145.054" stroke="#6760F5" stroke-width="3" stroke-miterlimit="10" stroke-linecap="round"/>
<path d="M166.974 36.9069C166.922 37.6952 166.267 38.308 165.477 38.308C165.419 38.308 165.368 38.3048 165.328 38.3012C159.866 38.343 155.458 42.7712 155.458 48.2184C155.458 53.6915 159.908 58.1358 165.406 58.1358H173.992H205.474C210.971 58.1358 215.422 53.6915 215.422 48.2184C215.422 43.5996 212.234 39.736 207.915 38.6417C207.275 38.4797 206.816 37.9189 206.785 37.2599C206.276 26.7198 197.57 18.3203 186.871 18.3203C176.292 18.3203 167.659 26.5327 166.974 36.9069ZM165.216 38.2874C165.216 38.2874 165.219 38.2879 165.223 38.2884L165.218 38.2876L165.216 38.2874ZM165.667 35.3215C165.667 35.3215 165.664 35.3211 165.66 35.3205L165.666 35.3213L165.667 35.3215Z" stroke="#6760F5" stroke-width="3" stroke-miterlimit="10" stroke-linecap="round" stroke-linejoin="round"/>
<rect x="2" y="32.6367" width="330" height="145" rx="16" fill="url(#paint0_linear_605_193972)" fill-opacity="0.1"/>
<path d="M94.5 32.6367H18C9.16344 32.6367 2 39.8002 2 48.6367V161.637C2 170.473 9.16344 177.637 18 177.637H315C323.837 177.637 331 170.473 331 161.637V48.6367C331 39.8002 323.837 32.6367 315 32.6367H229.5" stroke="url(#paint1_linear_605_193972)" stroke-width="3" stroke-linecap="round"/>
<path d="M93.2656 129.726C92.4043 129.726 91.666 129.493 91.0439 129.021C90.4219 128.557 90.0391 127.907 89.8955 127.073L90.8252 126.841C90.9209 127.497 91.1875 128.003 91.6318 128.352C92.0693 128.707 92.6162 128.885 93.2793 128.885C93.9219 128.885 94.4414 128.714 94.8379 128.365C95.2344 128.023 95.4326 127.586 95.4326 127.06C95.4326 125.665 93.8945 125.255 92.541 124.715C91.4541 124.277 90.4697 123.655 90.4697 122.336C90.4561 120.866 91.707 119.848 93.2041 119.875C94.4414 119.875 95.3506 120.395 95.9385 121.427L95.1592 121.912C94.7148 121.112 94.0518 120.709 93.1699 120.709C92.6641 120.709 92.2471 120.859 91.9121 121.16C91.5771 121.461 91.4062 121.837 91.4062 122.295C91.4062 124.585 96.3691 123.799 96.3691 126.984C96.3691 127.798 96.0752 128.461 95.4873 128.967C94.8926 129.473 94.1543 129.726 93.2656 129.726ZM99.5752 129.644H98.6387V119.978H101.346C102.296 119.978 103.075 120.217 103.67 120.688C104.265 121.167 104.559 121.83 104.559 122.671C104.559 123.956 103.793 124.852 102.515 125.159L105.188 129.644H104.121L101.599 125.255C101.4 125.269 101.188 125.275 100.949 125.275H99.5752V129.644ZM99.582 120.825V124.496H101.421C102.836 124.476 103.622 123.833 103.622 122.685C103.622 121.509 102.774 120.825 101.353 120.825H99.582ZM110.499 129.637H109.562V120.825H106.192V119.978H113.869V120.825H110.499V129.637ZM114.532 131.79H113.903L115.332 127.846H116.364L114.532 131.79ZM126.933 127.798L130.173 119.978H131.465V129.623H130.562V121.208L127.384 128.844H126.468L123.289 121.194V129.623H122.387V119.978H123.686L126.933 127.798ZM135.471 129.637H134.541V119.978H137.193C138.185 119.978 138.971 120.217 139.559 120.702C140.146 121.188 140.44 121.857 140.44 122.712C140.44 123.566 140.146 124.229 139.565 124.701C138.984 125.173 138.191 125.412 137.193 125.412H135.471V129.637ZM135.471 120.859V124.523H137.193C138.725 124.523 139.511 123.888 139.511 122.712C139.511 121.536 138.697 120.859 137.193 120.859H135.471ZM148.91 129.637H142.594V119.978H148.91V120.846H143.53V124.353H148.37V125.221H143.53V128.748H148.91V129.637ZM155.001 129.739C154.064 129.739 153.258 129.521 152.595 129.09C151.932 128.659 151.433 128.078 151.111 127.34C150.79 126.608 150.626 125.754 150.626 124.79C150.626 123.348 151.009 122.131 151.733 121.249C152.458 120.374 153.613 119.861 155.056 119.861C156.956 119.861 158.269 120.729 158.986 122.473L158.146 122.828C157.633 121.399 156.601 120.688 155.049 120.688C153.914 120.688 153.046 121.058 152.451 121.789C151.856 122.527 151.556 123.519 151.556 124.756C151.556 127.06 152.581 128.892 155.001 128.892C156.689 128.892 157.79 128.044 158.139 126.431L158.159 125.433H155.801V124.66H159.082V129.637H158.33L158.248 127.9C157.612 129.083 156.498 129.739 155.001 129.739ZM165.111 125.733H161.42V125.029H165.111V125.733ZM170.136 129.637H169.199V120.825H165.829V119.978H173.506V120.825H170.136V129.637ZM177.963 129.726C177.102 129.726 176.363 129.493 175.741 129.021C175.119 128.557 174.736 127.907 174.593 127.073L175.522 126.841C175.618 127.497 175.885 128.003 176.329 128.352C176.767 128.707 177.313 128.885 177.977 128.885C178.619 128.885 179.139 128.714 179.535 128.365C179.932 128.023 180.13 127.586 180.13 127.06C180.13 125.665 178.592 125.255 177.238 124.715C176.151 124.277 175.167 123.655 175.167 122.336C175.153 120.866 176.404 119.848 177.901 119.875C179.139 119.875 180.048 120.395 180.636 121.427L179.856 121.912C179.412 121.112 178.749 120.709 177.867 120.709C177.361 120.709 176.944 120.859 176.609 121.16C176.274 121.461 176.104 121.837 176.104 122.295C176.104 124.585 181.066 123.799 181.066 126.984C181.066 127.798 180.772 128.461 180.185 128.967C179.59 129.473 178.852 129.726 177.963 129.726ZM183.479 131.79H182.851L184.279 127.846H185.312L183.479 131.79ZM192.271 129.644H191.334V119.978H194.041C194.991 119.978 195.771 120.217 196.365 120.688C196.96 121.167 197.254 121.83 197.254 122.671C197.254 123.956 196.488 124.852 195.21 125.159L197.883 129.644H196.816L194.294 125.255C194.096 125.269 193.884 125.275 193.645 125.275H192.271V129.644ZM192.277 120.825V124.496H194.116C195.531 124.476 196.317 123.833 196.317 122.685C196.317 121.509 195.47 120.825 194.048 120.825H192.277ZM203.194 129.637H202.258V120.825H198.888V119.978H206.564V120.825H203.194V129.637ZM213.079 127.798L216.319 119.978H217.611V129.623H216.709V121.208L213.53 128.844H212.614L209.436 121.194V129.623H208.533V119.978H209.832L213.079 127.798ZM221.617 129.637H220.688V119.978H223.34C224.331 119.978 225.117 120.217 225.705 120.702C226.293 121.188 226.587 121.857 226.587 122.712C226.587 123.566 226.293 124.229 225.712 124.701C225.131 125.173 224.338 125.412 223.34 125.412H221.617V129.637ZM221.617 120.859V124.523H223.34C224.871 124.523 225.657 123.888 225.657 122.712C225.657 121.536 224.844 120.859 223.34 120.859H221.617ZM230.634 130.061H229.813C229.328 129.514 228.938 128.734 228.645 127.716C228.351 126.704 228.2 125.733 228.2 124.811C228.2 123.765 228.337 122.787 228.617 121.864C228.891 120.948 229.287 120.183 229.807 119.561H230.647C230.066 120.278 229.636 121.092 229.355 122.001C229.075 122.91 228.932 123.854 228.932 124.831C228.932 125.829 229.075 126.779 229.369 127.682C229.663 128.591 230.08 129.384 230.634 130.061ZM235.07 129.726C234.209 129.726 233.471 129.493 232.849 129.021C232.227 128.557 231.844 127.907 231.7 127.073L232.63 126.841C232.726 127.497 232.992 128.003 233.437 128.352C233.874 128.707 234.421 128.885 235.084 128.885C235.727 128.885 236.246 128.714 236.643 128.365C237.039 128.023 237.237 127.586 237.237 127.06C237.237 125.665 235.699 125.255 234.346 124.715C233.259 124.277 232.274 123.655 232.274 122.336C232.261 120.866 233.512 119.848 235.009 119.875C236.246 119.875 237.155 120.395 237.743 121.427L236.964 121.912C236.52 121.112 235.856 120.709 234.975 120.709C234.469 120.709 234.052 120.859 233.717 121.16C233.382 121.461 233.211 121.837 233.211 122.295C233.211 124.585 238.174 123.799 238.174 126.984C238.174 127.798 237.88 128.461 237.292 128.967C236.697 129.473 235.959 129.726 235.07 129.726ZM240.17 130.061H239.35C239.903 129.384 240.32 128.591 240.614 127.682C240.908 126.779 241.052 125.829 241.052 124.831C241.052 123.854 240.908 122.91 240.628 122.001C240.348 121.092 239.917 120.278 239.336 119.561H240.177C240.696 120.183 241.093 120.948 241.373 121.864C241.646 122.787 241.783 123.765 241.783 124.811C241.783 125.733 241.64 126.704 241.346 127.716C241.052 128.734 240.655 129.514 240.17 130.061Z" fill="white"/>
<path d="M94.6914 103.637H92.2305V89.8379H96.5566C98.002 89.8379 99.1738 90.1992 100.082 90.9219C100.98 91.6445 101.43 92.6406 101.43 93.9199C101.43 95.1797 100.98 96.1562 100.082 96.8594C99.1738 97.5625 98.002 97.9141 96.5566 97.9141H94.6914V103.637ZM94.6914 92.1523V95.5996H96.5566C98.2266 95.5996 98.9688 95.043 98.9688 93.9199C98.9688 92.7383 98.168 92.1523 96.5566 92.1523H94.6914ZM105.326 103.637H103.021V93.8809H105.346V95.5215C105.551 94.9453 105.893 94.4961 106.381 94.1641C106.869 93.8418 107.396 93.6758 107.963 93.6758C108.695 93.6758 109.291 93.9102 109.75 94.3789L108.666 96.332C108.334 96.1074 107.982 96 107.602 96C106.986 96 106.449 96.293 106 96.8887C105.551 97.4844 105.326 98.3535 105.326 99.5156V103.637ZM116.674 103.422C116.039 103.695 115.355 103.832 114.623 103.832C113.891 103.832 113.207 103.695 112.572 103.422C111.938 103.148 111.41 102.777 110.99 102.318C110.131 101.391 109.623 100.111 109.623 98.7344C109.623 96.8984 110.463 95.2969 112.006 94.3691C112.777 93.9102 113.646 93.6758 114.623 93.6758C115.6 93.6758 116.479 93.9102 117.25 94.3691C118.021 94.8281 118.607 95.4434 119.018 96.2051C119.418 96.9766 119.623 97.8164 119.623 98.7344C119.623 100.814 118.52 102.621 116.674 103.422ZM114.623 101.781C115.473 101.781 116.098 101.488 116.518 100.912C116.938 100.336 117.143 99.6133 117.143 98.7344C117.172 97.1133 116.4 95.7559 114.623 95.7363C113.773 95.7363 113.148 96.0195 112.729 96.5762C112.309 97.1426 112.104 97.8652 112.104 98.7344C112.104 99.8574 112.396 100.756 113.178 101.342C113.568 101.635 114.047 101.781 114.623 101.781ZM124.965 103.832C124.018 103.832 123.266 103.568 122.729 103.051C122.191 102.533 121.918 101.83 121.918 100.941V95.873H120.346V93.8809H121.957V91.459L124.301 89.7598V93.8809H126.742V95.873H124.301V100.521C124.301 101.332 124.662 101.732 125.385 101.732C125.805 101.732 126.264 101.615 126.742 101.381V103.539C126.225 103.734 125.639 103.832 124.965 103.832ZM134.975 103.422C134.34 103.695 133.656 103.832 132.924 103.832C132.191 103.832 131.508 103.695 130.873 103.422C130.238 103.148 129.711 102.777 129.291 102.318C128.432 101.391 127.924 100.111 127.924 98.7344C127.924 96.8984 128.764 95.2969 130.307 94.3691C131.078 93.9102 131.947 93.6758 132.924 93.6758C133.9 93.6758 134.779 93.9102 135.551 94.3691C136.322 94.8281 136.908 95.4434 137.318 96.2051C137.719 96.9766 137.924 97.8164 137.924 98.7344C137.924 100.814 136.82 102.621 134.975 103.422ZM132.924 101.781C133.773 101.781 134.398 101.488 134.818 100.912C135.238 100.336 135.443 99.6133 135.443 98.7344C135.473 97.1133 134.701 95.7559 132.924 95.7363C132.074 95.7363 131.449 96.0195 131.029 96.5762C130.609 97.1426 130.404 97.8652 130.404 98.7344C130.404 99.8574 130.697 100.756 131.479 101.342C131.869 101.635 132.348 101.781 132.924 101.781ZM143.725 103.832C142.191 103.832 140.912 103.217 140.16 102.27C139.408 101.322 138.998 100.092 138.998 98.7734C138.998 97.4551 139.398 96.2441 140.15 95.2676C140.902 94.3008 142.172 93.6758 143.705 93.6758C145.688 93.6758 147.191 94.6523 147.924 96.5566L145.658 97.4355C145.395 96.4688 144.652 95.834 143.705 95.834C142.055 95.834 141.42 97.3184 141.42 98.7734C141.42 100.258 142.055 101.674 143.705 101.674C144.643 101.674 145.395 101.059 145.658 100.121L147.826 100.941C147.182 102.758 145.648 103.832 143.725 103.832ZM155.697 103.422C155.062 103.695 154.379 103.832 153.646 103.832C152.914 103.832 152.23 103.695 151.596 103.422C150.961 103.148 150.434 102.777 150.014 102.318C149.154 101.391 148.646 100.111 148.646 98.7344C148.646 96.8984 149.486 95.2969 151.029 94.3691C151.801 93.9102 152.67 93.6758 153.646 93.6758C154.623 93.6758 155.502 93.9102 156.273 94.3691C157.045 94.8281 157.631 95.4434 158.041 96.2051C158.441 96.9766 158.646 97.8164 158.646 98.7344C158.646 100.814 157.543 102.621 155.697 103.422ZM153.646 101.781C154.496 101.781 155.121 101.488 155.541 100.912C155.961 100.336 156.166 99.6133 156.166 98.7344C156.195 97.1133 155.424 95.7559 153.646 95.7363C152.797 95.7363 152.172 96.0195 151.752 96.5762C151.332 97.1426 151.127 97.8652 151.127 98.7344C151.127 99.8574 151.42 100.756 152.201 101.342C152.592 101.635 153.07 101.781 153.646 101.781ZM162.562 103.832C161.928 103.832 161.43 103.676 161.068 103.354C160.707 103.041 160.521 102.484 160.521 101.693V89.8379H162.904V101.039C162.904 101.479 163.168 101.693 163.686 101.693C163.871 101.693 164.086 101.674 164.34 101.635V103.637C163.676 103.764 163.08 103.832 162.562 103.832ZM175.316 103.793C174.076 103.793 172.895 103.441 171.928 102.787C170.961 102.133 170.238 101.059 170.033 99.7402L172.494 99.1152C172.582 99.9355 172.885 100.551 173.412 100.971C173.93 101.391 174.584 101.596 175.355 101.596C176.791 101.596 177.631 100.854 177.631 99.8379C177.631 98.4023 175.961 97.9238 174.291 97.25C173.461 96.9473 172.621 96.4785 171.996 95.9316C171.371 95.3945 170.951 94.5059 170.951 93.4414C170.951 91.8691 171.82 90.6484 173.109 90.0625C173.754 89.7793 174.467 89.6328 175.258 89.6328C177.025 89.6328 178.549 90.4238 179.457 92.0547L177.396 93.3145C176.918 92.377 176.098 91.8398 175.17 91.8398C174.672 91.8398 174.262 91.9766 173.93 92.25C173.598 92.5234 173.432 92.875 173.432 93.3145C173.432 95.9121 180.111 95.043 180.111 99.6133C180.141 102.172 177.934 103.842 175.316 103.793ZM185.111 103.832C183.891 103.832 182.924 103.334 182.387 102.543C181.84 101.762 181.576 100.805 181.576 99.7402V93.8809H183.93V99.4375C183.93 100.756 184.613 101.635 185.795 101.635C187.191 101.635 187.992 100.854 187.992 99.2129V93.8809H190.355V103.637H187.992V102.494C187.26 103.402 186.166 103.832 185.111 103.832ZM198.461 93.6855C199.33 93.6855 200.092 93.9199 200.736 94.3984C201.381 94.877 201.859 95.4922 202.172 96.2441C202.484 97.0059 202.641 97.8457 202.641 98.7637C202.641 100.131 202.26 101.381 201.566 102.318C200.873 103.256 199.75 103.842 198.422 103.842C197.23 103.842 196.312 103.451 195.678 102.66V107.68H193.217V93.8809H195.678V94.8574C196.332 94.0664 197.367 93.6855 198.461 93.6855ZM199.643 96.6738C199.242 96.1465 198.656 95.8828 197.865 95.8828C197.074 95.8828 196.479 96.1465 196.078 96.6738C195.668 97.2109 195.463 97.9043 195.463 98.7637C195.463 99.6328 195.668 100.336 196.078 100.873C196.479 101.41 197.074 101.684 197.865 101.684C198.646 101.684 199.242 101.41 199.643 100.863C200.043 100.326 200.238 99.623 200.238 98.7637C200.238 97.9043 200.043 97.2109 199.643 96.6738ZM209.945 93.6855C210.814 93.6855 211.576 93.9199 212.221 94.3984C212.865 94.877 213.344 95.4922 213.656 96.2441C213.969 97.0059 214.125 97.8457 214.125 98.7637C214.125 100.131 213.744 101.381 213.051 102.318C212.357 103.256 211.234 103.842 209.906 103.842C208.715 103.842 207.797 103.451 207.162 102.66V107.68H204.701V93.8809H207.162V94.8574C207.816 94.0664 208.852 93.6855 209.945 93.6855ZM211.127 96.6738C210.727 96.1465 210.141 95.8828 209.35 95.8828C208.559 95.8828 207.963 96.1465 207.562 96.6738C207.152 97.2109 206.947 97.9043 206.947 98.7637C206.947 99.6328 207.152 100.336 207.562 100.873C207.963 101.41 208.559 101.684 209.35 101.684C210.131 101.684 210.727 101.41 211.127 100.863C211.527 100.326 211.723 99.623 211.723 98.7637C211.723 97.9043 211.527 97.2109 211.127 96.6738ZM222.299 103.422C221.664 103.695 220.98 103.832 220.248 103.832C219.516 103.832 218.832 103.695 218.197 103.422C217.562 103.148 217.035 102.777 216.615 102.318C215.756 101.391 215.248 100.111 215.248 98.7344C215.248 96.8984 216.088 95.2969 217.631 94.3691C218.402 93.9102 219.271 93.6758 220.248 93.6758C221.225 93.6758 222.104 93.9102 222.875 94.3691C223.646 94.8281 224.232 95.4434 224.643 96.2051C225.043 96.9766 225.248 97.8164 225.248 98.7344C225.248 100.814 224.145 102.621 222.299 103.422ZM220.248 101.781C221.098 101.781 221.723 101.488 222.143 100.912C222.562 100.336 222.768 99.6133 222.768 98.7344C222.797 97.1133 222.025 95.7559 220.248 95.7363C219.398 95.7363 218.773 96.0195 218.354 96.5762C217.934 97.1426 217.729 97.8652 217.729 98.7344C217.729 99.8574 218.021 100.756 218.803 101.342C219.193 101.635 219.672 101.781 220.248 101.781ZM229.486 103.637H227.182V93.8809H229.506V95.5215C229.711 94.9453 230.053 94.4961 230.541 94.1641C231.029 93.8418 231.557 93.6758 232.123 93.6758C232.855 93.6758 233.451 93.9102 233.91 94.3789L232.826 96.332C232.494 96.1074 232.143 96 231.762 96C231.146 96 230.609 96.293 230.16 96.8887C229.711 97.4844 229.486 98.3535 229.486 99.5156V103.637ZM239.047 103.832C238.1 103.832 237.348 103.568 236.811 103.051C236.273 102.533 236 101.83 236 100.941V95.873H234.428V93.8809H236.039V91.459L238.383 89.7598V93.8809H240.824V95.873H238.383V100.521C238.383 101.332 238.744 101.732 239.467 101.732C239.887 101.732 240.346 101.615 240.824 101.381V103.539C240.307 103.734 239.721 103.832 239.047 103.832Z" fill="white"/>
<defs>
<linearGradient id="paint0_linear_605_193972" x1="126.971" y1="48.6367" x2="74.8052" y2="177.523" gradientUnits="userSpaceOnUse">
<stop stop-color="#7B62F2" stop-opacity="0.08"/>
<stop offset="1" stop-color="#5031E4"/>
</linearGradient>
<linearGradient id="paint1_linear_605_193972" x1="126.593" y1="32.6367" x2="139.701" y2="220.21" gradientUnits="userSpaceOnUse">
<stop stop-color="#7B62F2"/>
<stop offset="1" stop-color="#5031E4"/>
</linearGradient>
</defs>
</svg>
