<svg width="1464" height="344" viewBox="0 0 1464 344" fill="none" xmlns="http://www.w3.org/2000/svg">
<rect width="1464" height="344" rx="2" fill="#6760F5"/>
<path d="M502.988 121H492.625V82.3633H503.043C509.414 82.3633 514.309 84.0586 517.699 87.4219C521.062 90.8125 522.758 95.6523 522.758 101.969C522.758 108.012 521.035 112.715 517.617 116.023C514.199 119.332 509.305 121 502.988 121ZM496.371 85.8359V117.527H502.66C513.16 117.527 519.012 112.332 519.012 101.832C519.012 91.0312 513.816 85.8359 502.988 85.8359H496.371ZM534.898 87.9688H531.125V82.3633H534.898V87.9688ZM534.789 121H531.207V93.6836H534.789V121ZM552.727 121.41C550.074 121.41 547.75 120.727 545.754 119.387C543.73 118.047 542.363 116.324 541.652 114.219L544.578 112.934C545.152 114.492 546.109 115.805 547.504 116.816C548.871 117.855 550.566 118.375 552.562 118.375C556.582 118.375 558.879 116.324 558.879 113.344C558.879 109.652 554.914 108.969 550.949 107.957C546.984 106.973 543.02 105.715 543.02 100.766C543.02 98.4141 543.895 96.582 545.672 95.2422C547.422 93.9023 549.664 93.2461 552.371 93.2461C556.637 93.2461 560.027 95.3242 561.969 98.9609L559.18 100.465C557.648 97.5938 555.352 96.1719 552.262 96.1719C548.762 96.1719 546.492 97.8672 546.492 100.301C546.492 107.055 562.434 102.734 562.434 113.18C562.434 115.805 561.531 117.828 559.699 119.25C557.867 120.699 555.543 121.41 552.727 121.41ZM579.824 121.41C571.977 121.41 567.52 115.121 567.52 107.383C567.52 103.746 568.586 100.301 570.555 97.6211C572.523 94.9414 575.805 93.2461 579.77 93.2461C584.801 93.2461 588.766 95.8711 590.762 100.766L587.316 102.105C586.004 98.6328 583.242 96.5547 579.77 96.5547C573.891 96.5547 571.184 101.805 571.184 107.383C571.184 111.293 572.305 114.52 574.957 116.57C576.297 117.609 577.91 118.129 579.797 118.129C583.324 118.129 586.086 116.051 587.18 112.633L590.488 113.891C588.82 118.621 584.855 121.41 579.824 121.41ZM608.043 121.41C604.215 121.41 601.07 120.043 598.582 117.336C596.094 114.629 594.863 111.266 594.863 107.273C594.699 99.5898 600.441 93.1367 608.043 93.2461C615.699 93.1367 621.469 99.5898 621.332 107.273C621.469 115.012 615.699 121.547 608.043 121.41ZM608.043 118.266C610.941 118.266 613.266 117.199 614.988 115.094C616.711 112.988 617.586 110.391 617.586 107.273C617.586 104.184 616.711 101.586 614.988 99.5078C613.266 97.457 610.941 96.418 608.043 96.418C605.172 96.418 602.875 97.457 601.18 99.5078C599.457 101.559 598.609 104.156 598.609 107.273C598.609 110.418 599.457 113.016 601.18 115.121C602.875 117.227 605.172 118.266 608.043 118.266ZM638.23 121H635.141L623.984 93.6836H627.922L636.699 116.406L645.449 93.6836H649.414L638.23 121ZM664.945 121.41C656.879 121.465 652.066 115.285 652.203 107.465C652.203 102.242 654.008 97.8398 657.809 95.2148C659.695 93.9023 661.938 93.2461 664.508 93.2461C669.812 93.3008 673.121 95.8164 674.734 99.0977C675.91 101.367 676.348 103.582 676.348 105.879C676.348 107.027 676.293 107.848 676.156 108.312H656.031C656.332 114.465 659.531 118.129 664.973 118.129C668.281 118.129 670.551 117.199 672.984 114.656L675.5 116.871C672.438 120.07 669.348 121.41 664.945 121.41ZM656.031 105.633H672.738C672.766 104.949 672.766 104.375 672.684 103.91C672.492 101.969 671.781 100.219 670.496 98.7422C669.211 97.2656 667.078 96.3359 664.48 96.3359C662.047 96.3359 660.105 97.1836 658.629 98.8789C657.125 100.574 656.277 102.816 656.031 105.633ZM687.285 121H683.785V93.6836H687.312V99.3984C687.941 97.4023 689.062 95.8984 690.676 94.832C692.289 93.7656 693.957 93.2461 695.734 93.2461C697.402 93.2461 698.824 93.6836 700 94.5586L698.359 97.5664C697.402 97.0469 696.363 96.7734 695.242 96.7734C693.355 96.7734 691.469 97.5664 689.91 99.0977C688.352 100.656 687.285 103.527 687.285 107.055V121ZM732.047 121.027H728.219L717.09 82.3633H721L730.379 115.641L740.469 84.4414H743.531L753.594 115.641L762.973 82.3633H766.91L755.754 121.027H751.953L742 90.3477L732.047 121.027ZM782.66 121.41C778.832 121.41 775.688 120.043 773.199 117.336C770.711 114.629 769.48 111.266 769.48 107.273C769.316 99.5898 775.059 93.1367 782.66 93.2461C790.316 93.1367 796.086 99.5898 795.949 107.273C796.086 115.012 790.316 121.547 782.66 121.41ZM782.66 118.266C785.559 118.266 787.883 117.199 789.605 115.094C791.328 112.988 792.203 110.391 792.203 107.273C792.203 104.184 791.328 101.586 789.605 99.5078C787.883 97.457 785.559 96.418 782.66 96.418C779.789 96.418 777.492 97.457 775.797 99.5078C774.074 101.559 773.227 104.156 773.227 107.273C773.227 110.418 774.074 113.016 775.797 115.121C777.492 117.227 779.789 118.266 782.66 118.266ZM806.887 121H803.387V93.6836H806.914V99.3984C807.543 97.4023 808.664 95.8984 810.277 94.832C811.891 93.7656 813.559 93.2461 815.336 93.2461C817.004 93.2461 818.426 93.6836 819.602 94.5586L817.961 97.5664C817.004 97.0469 815.965 96.7734 814.844 96.7734C812.957 96.7734 811.07 97.5664 809.512 99.0977C807.953 100.656 806.887 103.527 806.887 107.055V121ZM828.871 121H825.262V82.3633H828.871V108.531L842.926 93.6836H847.656L837.758 103.883L849.27 121H844.977L835.297 106.152L828.871 112.906V121ZM875.438 121.41C871.719 121.41 870.379 119.359 870.379 115.23V86.4102C868.875 85.3984 867.207 84.9062 865.348 84.9062C861.465 84.9062 859.523 87.0938 859.523 91.4688V93.6836H865.621L865.594 96.7461H859.523V121H855.914V96.7461H851.375V93.6836H855.914V91.4141C855.914 88.2969 856.789 85.9453 858.512 84.332C860.234 82.7461 862.449 81.9531 865.184 81.9531C866.852 81.9531 868.328 82.1445 869.613 82.5273C870.871 82.9102 872.32 83.5938 873.988 84.6055V114.301C873.988 115.504 874.098 116.215 874.48 116.98C874.863 117.773 875.684 118.156 876.996 118.156C877.57 118.156 878.309 118.074 879.211 117.883L879.266 120.973C877.844 121.273 876.559 121.41 875.438 121.41ZM896.355 121.41C892.527 121.41 889.383 120.043 886.895 117.336C884.406 114.629 883.176 111.266 883.176 107.273C883.012 99.5898 888.754 93.1367 896.355 93.2461C904.012 93.1367 909.781 99.5898 909.645 107.273C909.781 115.012 904.012 121.547 896.355 121.41ZM896.355 118.266C899.254 118.266 901.578 117.199 903.301 115.094C905.023 112.988 905.898 110.391 905.898 107.273C905.898 104.184 905.023 101.586 903.301 99.5078C901.578 97.457 899.254 96.418 896.355 96.418C893.484 96.418 891.188 97.457 889.492 99.5078C887.77 101.559 886.922 104.156 886.922 107.273C886.922 110.418 887.77 113.016 889.492 115.121C891.188 117.227 893.484 118.266 896.355 118.266ZM924.328 121.055H920.91L912.953 93.6836H916.836L922.824 115.559L930.152 93.6836H933.461L940.762 115.531L946.777 93.6836H950.66L942.676 121H939.258L931.793 98.6602L924.328 121.055ZM965.125 121.41C962.473 121.41 960.148 120.727 958.152 119.387C956.129 118.047 954.762 116.324 954.051 114.219L956.977 112.934C957.551 114.492 958.508 115.805 959.902 116.816C961.27 117.855 962.965 118.375 964.961 118.375C968.98 118.375 971.277 116.324 971.277 113.344C971.277 109.652 967.312 108.969 963.348 107.957C959.383 106.973 955.418 105.715 955.418 100.766C955.418 98.4141 956.293 96.582 958.07 95.2422C959.82 93.9023 962.062 93.2461 964.77 93.2461C969.035 93.2461 972.426 95.3242 974.367 98.9609L971.578 100.465C970.047 97.5938 967.75 96.1719 964.66 96.1719C961.16 96.1719 958.891 97.8672 958.891 100.301C958.891 107.055 974.832 102.734 974.832 113.18C974.832 115.805 973.93 117.828 972.098 119.25C970.266 120.699 967.941 121.41 965.125 121.41Z" fill="white"/>
<path d="M396.391 167.152C394.914 167.152 393.648 166.754 392.582 165.945C391.516 165.148 390.859 164.035 390.613 162.605L392.207 162.207C392.371 163.332 392.828 164.199 393.59 164.797C394.34 165.406 395.277 165.711 396.414 165.711C397.516 165.711 398.406 165.418 399.086 164.82C399.766 164.234 400.105 163.484 400.105 162.582C400.105 160.191 397.469 159.488 395.148 158.562C393.285 157.812 391.598 156.746 391.598 154.484C391.574 151.965 393.719 150.219 396.285 150.266C398.406 150.266 399.965 151.156 400.973 152.926L399.637 153.758C398.875 152.387 397.738 151.695 396.227 151.695C395.359 151.695 394.645 151.953 394.07 152.469C393.496 152.984 393.203 153.629 393.203 154.414C393.203 158.34 401.711 156.992 401.711 162.453C401.711 163.848 401.207 164.984 400.199 165.852C399.18 166.719 397.914 167.152 396.391 167.152ZM409.422 167.176C405.965 167.199 403.902 164.551 403.961 161.199C403.961 158.961 404.734 157.074 406.363 155.949C407.172 155.387 408.133 155.105 409.234 155.105C411.508 155.129 412.926 156.207 413.617 157.613C414.121 158.586 414.309 159.535 414.309 160.52C414.309 161.012 414.285 161.363 414.227 161.562H405.602C405.73 164.199 407.102 165.77 409.434 165.77C410.852 165.77 411.824 165.371 412.867 164.281L413.945 165.23C412.633 166.602 411.309 167.176 409.422 167.176ZM405.602 160.414H412.762C412.773 160.121 412.773 159.875 412.738 159.676C412.656 158.844 412.352 158.094 411.801 157.461C411.25 156.828 410.336 156.43 409.223 156.43C408.18 156.43 407.348 156.793 406.715 157.52C406.07 158.246 405.707 159.207 405.602 160.414ZM422.008 167.176C418.551 167.199 416.488 164.551 416.547 161.199C416.547 158.961 417.32 157.074 418.949 155.949C419.758 155.387 420.719 155.105 421.82 155.105C424.094 155.129 425.512 156.207 426.203 157.613C426.707 158.586 426.895 159.535 426.895 160.52C426.895 161.012 426.871 161.363 426.812 161.562H418.188C418.316 164.199 419.688 165.77 422.02 165.77C423.438 165.77 424.41 165.371 425.453 164.281L426.531 165.23C425.219 166.602 423.895 167.176 422.008 167.176ZM418.188 160.414H425.348C425.359 160.121 425.359 159.875 425.324 159.676C425.242 158.844 424.938 158.094 424.387 157.461C423.836 156.828 422.922 156.43 421.809 156.43C420.766 156.43 419.934 156.793 419.301 157.52C418.656 158.246 418.293 159.207 418.188 160.414ZM437.816 167H436.246V150.441H437.816V157.285C438.555 155.879 439.879 155.105 441.461 155.105C442.773 155.105 443.781 155.516 444.473 156.348C445.164 157.18 445.527 158.258 445.551 159.582V167H443.98V159.945C443.98 157.66 443.02 156.523 441.109 156.523C440.09 156.523 439.281 156.875 438.695 157.566C438.109 158.258 437.816 159.184 437.816 160.32V167ZM454.059 167.176C452.418 167.176 451.07 166.59 450.004 165.43C448.938 164.27 448.41 162.828 448.41 161.117C448.34 157.824 450.801 155.059 454.059 155.105C457.34 155.059 459.812 157.824 459.754 161.117C459.812 164.434 457.34 167.234 454.059 167.176ZM454.059 165.828C455.301 165.828 456.297 165.371 457.035 164.469C457.773 163.566 458.148 162.453 458.148 161.117C458.148 159.793 457.773 158.68 457.035 157.789C456.297 156.91 455.301 156.465 454.059 156.465C452.828 156.465 451.844 156.91 451.117 157.789C450.379 158.668 450.016 159.781 450.016 161.117C450.016 162.465 450.379 163.578 451.117 164.48C451.844 165.383 452.828 165.828 454.059 165.828ZM466.047 167.023H464.582L461.172 155.293H462.836L465.402 164.668L468.543 155.293H469.961L473.09 164.656L475.668 155.293H477.332L473.91 167H472.445L469.246 157.426L466.047 167.023ZM488.312 167H486.719V150.441H491.266C492.965 150.441 494.312 150.852 495.32 151.684C496.328 152.516 496.832 153.664 496.832 155.129C496.832 156.594 496.328 157.73 495.332 158.539C494.336 159.348 492.977 159.758 491.266 159.758H488.312V167ZM488.312 151.953V158.234H491.266C493.891 158.234 495.238 157.145 495.238 155.129C495.238 153.113 493.844 151.953 491.266 151.953H488.312ZM501.191 167H499.691V155.293H501.203V157.742C501.473 156.887 501.953 156.242 502.645 155.785C503.336 155.328 504.051 155.105 504.812 155.105C505.527 155.105 506.137 155.293 506.641 155.668L505.938 156.957C505.527 156.734 505.082 156.617 504.602 156.617C503.793 156.617 502.984 156.957 502.316 157.613C501.648 158.281 501.191 159.512 501.191 161.023V167ZM510.625 152.844H509.008V150.441H510.625V152.844ZM510.578 167H509.043V155.293H510.578V167ZM518.266 167.176C517.129 167.176 516.133 166.883 515.277 166.309C514.41 165.734 513.824 164.996 513.52 164.094L514.773 163.543C515.02 164.211 515.43 164.773 516.027 165.207C516.613 165.652 517.34 165.875 518.195 165.875C519.918 165.875 520.902 164.996 520.902 163.719C520.902 162.137 519.203 161.844 517.504 161.41C515.805 160.988 514.105 160.449 514.105 158.328C514.105 157.32 514.48 156.535 515.242 155.961C515.992 155.387 516.953 155.105 518.113 155.105C519.941 155.105 521.395 155.996 522.227 157.555L521.031 158.199C520.375 156.969 519.391 156.359 518.066 156.359C516.566 156.359 515.594 157.086 515.594 158.129C515.594 161.023 522.426 159.172 522.426 163.648C522.426 164.773 522.039 165.641 521.254 166.25C520.469 166.871 519.473 167.176 518.266 167.176ZM527.219 167H525.672L525.66 155.293H527.16V157.332C527.781 155.867 529.082 155.105 530.688 155.105C532.469 155.105 533.781 155.961 534.297 157.695C534.988 156.008 536.395 155.105 538.164 155.105C539.523 155.105 540.531 155.551 541.199 156.453C541.867 157.355 542.195 158.586 542.195 160.156V167H540.648V160.344C540.648 157.848 539.816 156.559 537.883 156.559C536.922 156.559 536.148 156.887 535.574 157.531C535 158.188 534.707 159.031 534.707 160.062V167H533.16V159.922C533.16 157.777 532.281 156.559 530.406 156.559C529.434 156.559 528.66 156.887 528.086 157.531C527.512 158.188 527.219 159.031 527.219 160.062V167ZM556.551 167.176C553.188 167.176 551.277 164.48 551.277 161.164C551.277 159.605 551.734 158.129 552.578 156.98C553.422 155.832 554.828 155.105 556.527 155.105C558.684 155.105 560.383 156.23 561.238 158.328L559.762 158.902C559.199 157.414 558.016 156.523 556.527 156.523C554.008 156.523 552.848 158.773 552.848 161.164C552.848 162.84 553.328 164.223 554.465 165.102C555.039 165.547 555.73 165.77 556.539 165.77C558.051 165.77 559.234 164.879 559.703 163.414L561.121 163.953C560.406 165.98 558.707 167.176 556.551 167.176ZM568 155.105C569.488 155.105 570.637 155.527 571.445 156.359C572.254 157.203 572.664 158.363 572.664 159.852V167H571.375L571.27 164.621C570.414 166.273 568.809 167.176 567.016 167.176C565.809 167.176 564.824 166.859 564.086 166.215C563.348 165.582 562.973 164.715 562.973 163.602C562.973 161.375 564.613 160.262 567.883 160.262H571.258V160.121C571.258 157.602 570.32 156.477 568.012 156.477C566.594 156.477 565.469 157.109 564.613 158.387L563.43 157.52C564.602 155.891 565.984 155.105 568 155.105ZM567.309 165.852C569.289 165.852 570.695 164.586 571.258 162.605V161.41H567.965C565.703 161.41 564.555 162.207 564.555 163.648C564.555 165.008 565.574 165.852 567.309 165.852ZM578.09 167H576.543V155.293H578.09V157.285C578.805 155.879 580.176 155.105 581.758 155.105C584.453 155.117 585.824 157.039 585.824 159.582V167H584.277V159.945C584.277 157.789 583.258 156.547 581.348 156.547C579.332 156.547 578.09 157.824 578.09 160.074V167ZM601.68 167.176C600.754 167.176 599.91 166.93 599.16 166.438C598.398 165.945 597.836 165.266 597.473 164.41V167H595.879V150.441H597.473V157.871C597.836 157.016 598.398 156.336 599.148 155.844C599.887 155.352 600.73 155.105 601.656 155.105C602.676 155.105 603.578 155.375 604.34 155.926C605.102 156.477 605.676 157.191 606.062 158.094C606.449 158.996 606.637 160.016 606.637 161.129C606.637 163.379 605.875 165.266 604.352 166.355C603.59 166.906 602.699 167.176 601.68 167.176ZM601.316 165.734C602.5 165.734 603.426 165.301 604.094 164.445C604.75 163.59 605.078 162.477 605.078 161.129C605.078 159.781 604.75 158.68 604.094 157.812C603.426 156.957 602.5 156.523 601.316 156.523C600.121 156.523 599.16 156.957 598.434 157.824C597.707 158.691 597.344 159.793 597.344 161.129C597.344 162.477 597.707 163.578 598.434 164.434C599.148 165.301 600.109 165.734 601.316 165.734ZM614.43 167.176C610.973 167.199 608.91 164.551 608.969 161.199C608.969 158.961 609.742 157.074 611.371 155.949C612.18 155.387 613.141 155.105 614.242 155.105C616.516 155.129 617.934 156.207 618.625 157.613C619.129 158.586 619.316 159.535 619.316 160.52C619.316 161.012 619.293 161.363 619.234 161.562H610.609C610.738 164.199 612.109 165.77 614.441 165.77C615.859 165.77 616.832 165.371 617.875 164.281L618.953 165.23C617.641 166.602 616.316 167.176 614.43 167.176ZM610.609 160.414H617.77C617.781 160.121 617.781 159.875 617.746 159.676C617.664 158.844 617.359 158.094 616.809 157.461C616.258 156.828 615.344 156.43 614.23 156.43C613.188 156.43 612.355 156.793 611.723 157.52C611.078 158.246 610.715 159.207 610.609 160.414ZM632.91 167.176C631.363 167.176 629.992 166.496 629.102 165.406C628.211 164.316 627.684 162.781 627.684 161.129C627.684 158.926 628.551 157.016 630.156 155.926C630.953 155.375 631.867 155.105 632.887 155.105C633.812 155.105 634.645 155.352 635.406 155.844C636.168 156.336 636.719 157.016 637.082 157.871V150.441H638.652V167H637.199L637.141 164.34C636.777 165.219 636.227 165.91 635.465 166.414C634.703 166.918 633.859 167.176 632.91 167.176ZM630.355 164.445C631.094 165.324 632.055 165.77 633.25 165.77C634.445 165.77 635.406 165.336 636.121 164.457C636.836 163.59 637.199 162.477 637.199 161.129C637.199 159.793 636.836 158.691 636.121 157.824C635.406 156.957 634.445 156.523 633.25 156.523C632.055 156.523 631.094 156.957 630.355 157.836C629.617 158.715 629.254 159.805 629.254 161.129C629.254 162.465 629.617 163.566 630.355 164.445ZM647.383 167.176C643.926 167.199 641.863 164.551 641.922 161.199C641.922 158.961 642.695 157.074 644.324 155.949C645.133 155.387 646.094 155.105 647.195 155.105C649.469 155.129 650.887 156.207 651.578 157.613C652.082 158.586 652.27 159.535 652.27 160.52C652.27 161.012 652.246 161.363 652.188 161.562H643.562C643.691 164.199 645.062 165.77 647.395 165.77C648.812 165.77 649.785 165.371 650.828 164.281L651.906 165.23C650.594 166.602 649.27 167.176 647.383 167.176ZM643.562 160.414H650.723C650.734 160.121 650.734 159.875 650.699 159.676C650.617 158.844 650.312 158.094 649.762 157.461C649.211 156.828 648.297 156.43 647.184 156.43C646.141 156.43 645.309 156.793 644.676 157.52C644.031 158.246 643.668 159.207 643.562 160.414ZM661.281 155.117C662.301 155.117 663.191 155.387 663.953 155.938C664.715 156.488 665.277 157.215 665.664 158.117C666.051 159.02 666.238 160.039 666.238 161.164C666.238 163.402 665.477 165.277 663.941 166.367C663.18 166.918 662.277 167.188 661.258 167.188C660.332 167.188 659.488 166.941 658.75 166.449C658 165.957 657.438 165.277 657.074 164.422V171.852H655.48V155.293H657.074V157.883C657.438 157.027 658 156.348 658.762 155.855C659.512 155.363 660.355 155.117 661.281 155.117ZM660.918 156.559C659.711 156.559 658.75 156.992 658.035 157.848C657.309 158.715 656.945 159.816 656.945 161.164C656.945 162.5 657.309 163.602 658.035 164.469C658.762 165.336 659.723 165.77 660.918 165.77C662.102 165.77 663.027 165.336 663.695 164.469C664.352 163.613 664.68 162.512 664.68 161.164C664.68 159.816 664.352 158.703 663.695 157.848C663.027 156.992 662.102 156.559 660.918 156.559ZM671.617 167.176C670.023 167.176 669.461 166.297 669.461 164.527V150.441H671.008V164.129C671.008 165.207 671.23 165.781 672.297 165.781C672.543 165.781 672.859 165.746 673.246 165.664L673.27 166.988C672.66 167.117 672.109 167.176 671.617 167.176ZM680.582 167.176C678.941 167.176 677.594 166.59 676.527 165.43C675.461 164.27 674.934 162.828 674.934 161.117C674.863 157.824 677.324 155.059 680.582 155.105C683.863 155.059 686.336 157.824 686.277 161.117C686.336 164.434 683.863 167.234 680.582 167.176ZM680.582 165.828C681.824 165.828 682.82 165.371 683.559 164.469C684.297 163.566 684.672 162.453 684.672 161.117C684.672 159.793 684.297 158.68 683.559 157.789C682.82 156.91 681.824 156.465 680.582 156.465C679.352 156.465 678.367 156.91 677.641 157.789C676.902 158.668 676.539 159.781 676.539 161.117C676.539 162.465 676.902 163.578 677.641 164.48C678.367 165.383 679.352 165.828 680.582 165.828ZM691.914 172.016H690.227L692.219 166.859L687.238 155.293H688.938L693.039 165.043L696.648 155.293H698.336L691.914 172.016ZM704.852 167.176C701.395 167.199 699.332 164.551 699.391 161.199C699.391 158.961 700.164 157.074 701.793 155.949C702.602 155.387 703.562 155.105 704.664 155.105C706.938 155.129 708.355 156.207 709.047 157.613C709.551 158.586 709.738 159.535 709.738 160.52C709.738 161.012 709.715 161.363 709.656 161.562H701.031C701.16 164.199 702.531 165.77 704.863 165.77C706.281 165.77 707.254 165.371 708.297 164.281L709.375 165.23C708.062 166.602 706.738 167.176 704.852 167.176ZM701.031 160.414H708.191C708.203 160.121 708.203 159.875 708.168 159.676C708.086 158.844 707.781 158.094 707.23 157.461C706.68 156.828 705.766 156.43 704.652 156.43C703.609 156.43 702.777 156.793 702.145 157.52C701.5 158.246 701.137 159.207 701.031 160.414ZM717.191 167.176C715.645 167.176 714.273 166.496 713.383 165.406C712.492 164.316 711.965 162.781 711.965 161.129C711.965 158.926 712.832 157.016 714.438 155.926C715.234 155.375 716.148 155.105 717.168 155.105C718.094 155.105 718.926 155.352 719.688 155.844C720.449 156.336 721 157.016 721.363 157.871V150.441H722.934V167H721.48L721.422 164.34C721.059 165.219 720.508 165.91 719.746 166.414C718.984 166.918 718.141 167.176 717.191 167.176ZM714.637 164.445C715.375 165.324 716.336 165.77 717.531 165.77C718.727 165.77 719.688 165.336 720.402 164.457C721.117 163.59 721.48 162.477 721.48 161.129C721.48 159.793 721.117 158.691 720.402 157.824C719.688 156.957 718.727 156.523 717.531 156.523C716.336 156.523 715.375 156.957 714.637 157.836C713.898 158.715 713.535 159.805 713.535 161.129C713.535 162.465 713.898 163.566 714.637 164.445ZM734.875 152.844H733.258V150.441H734.875V152.844ZM734.828 167H733.293V155.293H734.828V167ZM740.582 167H739.035V155.293H740.582V157.285C741.297 155.879 742.668 155.105 744.25 155.105C746.945 155.117 748.316 157.039 748.316 159.582V167H746.77V159.945C746.77 157.789 745.75 156.547 743.84 156.547C741.824 156.547 740.582 157.824 740.582 160.074V167ZM762.297 155.105C763.785 155.105 764.934 155.527 765.742 156.359C766.551 157.203 766.961 158.363 766.961 159.852V167H765.672L765.566 164.621C764.711 166.273 763.105 167.176 761.312 167.176C760.105 167.176 759.121 166.859 758.383 166.215C757.645 165.582 757.27 164.715 757.27 163.602C757.27 161.375 758.91 160.262 762.18 160.262H765.555V160.121C765.555 157.602 764.617 156.477 762.309 156.477C760.891 156.477 759.766 157.109 758.91 158.387L757.727 157.52C758.898 155.891 760.281 155.105 762.297 155.105ZM761.605 165.852C763.586 165.852 764.992 164.586 765.555 162.605V161.41H762.262C760 161.41 758.852 162.207 758.852 163.648C758.852 165.008 759.871 165.852 761.605 165.852ZM781.41 167H780.086L775.305 155.293H776.992L780.754 165.031L784.504 155.293H786.203L781.41 167ZM792.578 155.105C794.066 155.105 795.215 155.527 796.023 156.359C796.832 157.203 797.242 158.363 797.242 159.852V167H795.953L795.848 164.621C794.992 166.273 793.387 167.176 791.594 167.176C790.387 167.176 789.402 166.859 788.664 166.215C787.926 165.582 787.551 164.715 787.551 163.602C787.551 161.375 789.191 160.262 792.461 160.262H795.836V160.121C795.836 157.602 794.898 156.477 792.59 156.477C791.172 156.477 790.047 157.109 789.191 158.387L788.008 157.52C789.18 155.891 790.562 155.105 792.578 155.105ZM791.887 165.852C793.867 165.852 795.273 164.586 795.836 162.605V161.41H792.543C790.281 161.41 789.133 162.207 789.133 163.648C789.133 165.008 790.152 165.852 791.887 165.852ZM802.621 167H801.121V155.293H802.633V157.742C802.902 156.887 803.383 156.242 804.074 155.785C804.766 155.328 805.48 155.105 806.242 155.105C806.957 155.105 807.566 155.293 808.07 155.668L807.367 156.957C806.957 156.734 806.512 156.617 806.031 156.617C805.223 156.617 804.414 156.957 803.746 157.613C803.078 158.281 802.621 159.512 802.621 161.023V167ZM812.055 152.844H810.438V150.441H812.055V152.844ZM812.008 167H810.473V155.293H812.008V167ZM820.727 167.176C817.27 167.199 815.207 164.551 815.266 161.199C815.266 158.961 816.039 157.074 817.668 155.949C818.477 155.387 819.438 155.105 820.539 155.105C822.812 155.129 824.23 156.207 824.922 157.613C825.426 158.586 825.613 159.535 825.613 160.52C825.613 161.012 825.59 161.363 825.531 161.562H816.906C817.035 164.199 818.406 165.77 820.738 165.77C822.156 165.77 823.129 165.371 824.172 164.281L825.25 165.23C823.938 166.602 822.613 167.176 820.727 167.176ZM816.906 160.414H824.066C824.078 160.121 824.078 159.875 824.043 159.676C823.961 158.844 823.656 158.094 823.105 157.461C822.555 156.828 821.641 156.43 820.527 156.43C819.484 156.43 818.652 156.793 818.02 157.52C817.375 158.246 817.012 159.207 816.906 160.414ZM832.363 167.176C830.289 167.176 829.176 165.957 829.176 163.719V156.605H827.23V155.293H829.199V151.906L830.723 150.77V155.293H834.004V156.605H830.723V163.473C830.723 165.102 831.355 165.805 832.621 165.805C833.055 165.805 833.512 165.711 833.992 165.523L834.016 166.941C833.535 167.094 832.984 167.176 832.363 167.176ZM840.25 172.016H838.562L840.555 166.859L835.574 155.293H837.273L841.375 165.043L844.984 155.293H846.672L840.25 172.016ZM859.973 167.176C858.332 167.176 856.984 166.59 855.918 165.43C854.852 164.27 854.324 162.828 854.324 161.117C854.254 157.824 856.715 155.059 859.973 155.105C863.254 155.059 865.727 157.824 865.668 161.117C865.727 164.434 863.254 167.234 859.973 167.176ZM859.973 165.828C861.215 165.828 862.211 165.371 862.949 164.469C863.688 163.566 864.062 162.453 864.062 161.117C864.062 159.793 863.688 158.68 862.949 157.789C862.211 156.91 861.215 156.465 859.973 156.465C858.742 156.465 857.758 156.91 857.031 157.789C856.293 158.668 855.93 159.781 855.93 161.117C855.93 162.465 856.293 163.578 857.031 164.48C857.758 165.383 858.742 165.828 859.973 165.828ZM871.258 167H869.664V156.605H867.227V155.293H869.676V153.477C869.676 152.445 869.98 151.648 870.59 151.098C871.188 150.547 871.996 150.266 872.992 150.266C873.578 150.266 874.164 150.406 874.738 150.699L874.223 151.977C873.812 151.754 873.449 151.648 873.133 151.648C871.879 151.648 871.258 152.305 871.258 153.617V155.293H874.691V156.605H871.258V167ZM887.723 167H886.398L881.617 155.293H883.305L887.066 165.031L890.816 155.293H892.516L887.723 167ZM896.617 152.844H895V150.441H896.617V152.844ZM896.57 167H895.035V155.293H896.57V167ZM905.043 167.176C903.496 167.176 902.125 166.496 901.234 165.406C900.344 164.316 899.816 162.781 899.816 161.129C899.816 158.926 900.684 157.016 902.289 155.926C903.086 155.375 904 155.105 905.02 155.105C905.945 155.105 906.777 155.352 907.539 155.844C908.301 156.336 908.852 157.016 909.215 157.871V150.441H910.785V167H909.332L909.273 164.34C908.91 165.219 908.359 165.91 907.598 166.414C906.836 166.918 905.992 167.176 905.043 167.176ZM902.488 164.445C903.227 165.324 904.188 165.77 905.383 165.77C906.578 165.77 907.539 165.336 908.254 164.457C908.969 163.59 909.332 162.477 909.332 161.129C909.332 159.793 908.969 158.691 908.254 157.824C907.539 156.957 906.578 156.523 905.383 156.523C904.188 156.523 903.227 156.957 902.488 157.836C901.75 158.715 901.387 159.805 901.387 161.129C901.387 162.465 901.75 163.566 902.488 164.445ZM919.516 167.176C916.059 167.199 913.996 164.551 914.055 161.199C914.055 158.961 914.828 157.074 916.457 155.949C917.266 155.387 918.227 155.105 919.328 155.105C921.602 155.129 923.02 156.207 923.711 157.613C924.215 158.586 924.402 159.535 924.402 160.52C924.402 161.012 924.379 161.363 924.32 161.562H915.695C915.824 164.199 917.195 165.77 919.527 165.77C920.945 165.77 921.918 165.371 922.961 164.281L924.039 165.23C922.727 166.602 921.402 167.176 919.516 167.176ZM915.695 160.414H922.855C922.867 160.121 922.867 159.875 922.832 159.676C922.75 158.844 922.445 158.094 921.895 157.461C921.344 156.828 920.43 156.43 919.316 156.43C918.273 156.43 917.441 156.793 916.809 157.52C916.164 158.246 915.801 159.207 915.695 160.414ZM932.207 167.176C930.566 167.176 929.219 166.59 928.152 165.43C927.086 164.27 926.559 162.828 926.559 161.117C926.488 157.824 928.949 155.059 932.207 155.105C935.488 155.059 937.961 157.824 937.902 161.117C937.961 164.434 935.488 167.234 932.207 167.176ZM932.207 165.828C933.449 165.828 934.445 165.371 935.184 164.469C935.922 163.566 936.297 162.453 936.297 161.117C936.297 159.793 935.922 158.68 935.184 157.789C934.445 156.91 933.449 156.465 932.207 156.465C930.977 156.465 929.992 156.91 929.266 157.789C928.527 158.668 928.164 159.781 928.164 161.117C928.164 162.465 928.527 163.578 929.266 164.48C929.992 165.383 930.977 165.828 932.207 165.828ZM951.18 155.105C952.668 155.105 953.816 155.527 954.625 156.359C955.434 157.203 955.844 158.363 955.844 159.852V167H954.555L954.449 164.621C953.594 166.273 951.988 167.176 950.195 167.176C948.988 167.176 948.004 166.859 947.266 166.215C946.527 165.582 946.152 164.715 946.152 163.602C946.152 161.375 947.793 160.262 951.062 160.262H954.438V160.121C954.438 157.602 953.5 156.477 951.191 156.477C949.773 156.477 948.648 157.109 947.793 158.387L946.609 157.52C947.781 155.891 949.164 155.105 951.18 155.105ZM950.488 165.852C952.469 165.852 953.875 164.586 954.438 162.605V161.41H951.145C948.883 161.41 947.734 162.207 947.734 163.648C947.734 165.008 948.754 165.852 950.488 165.852ZM965.547 155.117C966.566 155.117 967.457 155.387 968.219 155.938C968.98 156.488 969.543 157.215 969.93 158.117C970.316 159.02 970.504 160.039 970.504 161.164C970.504 163.402 969.742 165.277 968.207 166.367C967.445 166.918 966.543 167.188 965.523 167.188C964.598 167.188 963.754 166.941 963.016 166.449C962.266 165.957 961.703 165.277 961.34 164.422V171.852H959.746V155.293H961.34V157.883C961.703 157.027 962.266 156.348 963.027 155.855C963.777 155.363 964.621 155.117 965.547 155.117ZM965.184 156.559C963.977 156.559 963.016 156.992 962.301 157.848C961.574 158.715 961.211 159.816 961.211 161.164C961.211 162.5 961.574 163.602 962.301 164.469C963.027 165.336 963.988 165.77 965.184 165.77C966.367 165.77 967.293 165.336 967.961 164.469C968.617 163.613 968.945 162.512 968.945 161.164C968.945 159.816 968.617 158.703 967.961 157.848C967.293 156.992 966.367 156.559 965.184 156.559ZM979.609 155.117C980.629 155.117 981.52 155.387 982.281 155.938C983.043 156.488 983.605 157.215 983.992 158.117C984.379 159.02 984.566 160.039 984.566 161.164C984.566 163.402 983.805 165.277 982.27 166.367C981.508 166.918 980.605 167.188 979.586 167.188C978.66 167.188 977.816 166.941 977.078 166.449C976.328 165.957 975.766 165.277 975.402 164.422V171.852H973.809V155.293H975.402V157.883C975.766 157.027 976.328 156.348 977.09 155.855C977.84 155.363 978.684 155.117 979.609 155.117ZM979.246 156.559C978.039 156.559 977.078 156.992 976.363 157.848C975.637 158.715 975.273 159.816 975.273 161.164C975.273 162.5 975.637 163.602 976.363 164.469C977.09 165.336 978.051 165.77 979.246 165.77C980.43 165.77 981.355 165.336 982.023 164.469C982.68 163.613 983.008 162.512 983.008 161.164C983.008 159.816 982.68 158.703 982.023 157.848C981.355 156.992 980.43 156.559 979.246 156.559ZM989.945 167.176C988.352 167.176 987.789 166.297 987.789 164.527V150.441H989.336V164.129C989.336 165.207 989.559 165.781 990.625 165.781C990.871 165.781 991.188 165.746 991.574 165.664L991.598 166.988C990.988 167.117 990.438 167.176 989.945 167.176ZM995.875 152.844H994.258V150.441H995.875V152.844ZM995.828 167H994.293V155.293H995.828V167ZM1004.35 167.176C1000.98 167.176 999.074 164.48 999.074 161.164C999.074 159.605 999.531 158.129 1000.38 156.98C1001.22 155.832 1002.62 155.105 1004.32 155.105C1006.48 155.105 1008.18 156.23 1009.04 158.328L1007.56 158.902C1007 157.414 1005.81 156.523 1004.32 156.523C1001.8 156.523 1000.64 158.773 1000.64 161.164C1000.64 162.84 1001.12 164.223 1002.26 165.102C1002.84 165.547 1003.53 165.77 1004.34 165.77C1005.85 165.77 1007.03 164.879 1007.5 163.414L1008.92 163.953C1008.2 165.98 1006.5 167.176 1004.35 167.176ZM1015.8 155.105C1017.29 155.105 1018.43 155.527 1019.24 156.359C1020.05 157.203 1020.46 158.363 1020.46 159.852V167H1019.17L1019.07 164.621C1018.21 166.273 1016.61 167.176 1014.81 167.176C1013.61 167.176 1012.62 166.859 1011.88 166.215C1011.14 165.582 1010.77 164.715 1010.77 163.602C1010.77 161.375 1012.41 160.262 1015.68 160.262H1019.05V160.121C1019.05 157.602 1018.12 156.477 1015.81 156.477C1014.39 156.477 1013.27 157.109 1012.41 158.387L1011.23 157.52C1012.4 155.891 1013.78 155.105 1015.8 155.105ZM1015.11 165.852C1017.09 165.852 1018.49 164.586 1019.05 162.605V161.41H1015.76C1013.5 161.41 1012.35 162.207 1012.35 163.648C1012.35 165.008 1013.37 165.852 1015.11 165.852ZM1027.86 167.176C1025.78 167.176 1024.67 165.957 1024.67 163.719V156.605H1022.72V155.293H1024.69V151.906L1026.21 150.77V155.293H1029.5V156.605H1026.21V163.473C1026.21 165.102 1026.85 165.805 1028.11 165.805C1028.55 165.805 1029 165.711 1029.48 165.523L1029.51 166.941C1029.03 167.094 1028.48 167.176 1027.86 167.176ZM1034.15 152.844H1032.53V150.441H1034.15V152.844ZM1034.1 167H1032.57V155.293H1034.1V167ZM1042.93 167.176C1041.29 167.176 1039.94 166.59 1038.87 165.43C1037.8 164.27 1037.28 162.828 1037.28 161.117C1037.21 157.824 1039.67 155.059 1042.93 155.105C1046.21 155.059 1048.68 157.824 1048.62 161.117C1048.68 164.434 1046.21 167.234 1042.93 167.176ZM1042.93 165.828C1044.17 165.828 1045.16 165.371 1045.9 164.469C1046.64 163.566 1047.02 162.453 1047.02 161.117C1047.02 159.793 1046.64 158.68 1045.9 157.789C1045.16 156.91 1044.17 156.465 1042.93 156.465C1041.7 156.465 1040.71 156.91 1039.98 157.789C1039.25 158.668 1038.88 159.781 1038.88 161.117C1038.88 162.465 1039.25 163.578 1039.98 164.48C1040.71 165.383 1041.7 165.828 1042.93 165.828ZM1053.36 167H1051.81V155.293H1053.36V157.285C1054.07 155.879 1055.44 155.105 1057.02 155.105C1059.72 155.117 1061.09 157.039 1061.09 159.582V167H1059.54V159.945C1059.54 157.789 1058.52 156.547 1056.61 156.547C1054.6 156.547 1053.36 157.824 1053.36 160.074V167ZM1068.46 167.176C1067.32 167.176 1066.33 166.883 1065.47 166.309C1064.61 165.734 1064.02 164.996 1063.71 164.094L1064.97 163.543C1065.21 164.211 1065.62 164.773 1066.22 165.207C1066.81 165.652 1067.54 165.875 1068.39 165.875C1070.11 165.875 1071.1 164.996 1071.1 163.719C1071.1 162.137 1069.4 161.844 1067.7 161.41C1066 160.988 1064.3 160.449 1064.3 158.328C1064.3 157.32 1064.68 156.535 1065.44 155.961C1066.19 155.387 1067.15 155.105 1068.31 155.105C1070.14 155.105 1071.59 155.996 1072.42 157.555L1071.23 158.199C1070.57 156.969 1069.59 156.359 1068.26 156.359C1066.76 156.359 1065.79 157.086 1065.79 158.129C1065.79 161.023 1072.62 159.172 1072.62 163.648C1072.62 164.773 1072.23 165.641 1071.45 166.25C1070.66 166.871 1069.67 167.176 1068.46 167.176Z" fill="white"/>
<rect x="589.5" y="208" width="163" height="56" rx="8" fill="white"/>
<path d="M618.766 237.781L621.727 229.961H623.898L619.5 241H618.016L613.594 229.961H615.789L618.766 237.781ZM627.086 231.719H625.086V229.961H627.086V231.719ZM627.039 241H625.133V233.195H627.039V241ZM632.586 241.156C631.281 241.156 630.227 240.68 629.602 239.922C628.969 239.172 628.633 238.195 628.633 237.125C628.633 236.086 628.953 235.102 629.555 234.32C630.148 233.539 631.188 233.031 632.461 233.031C634.086 233.047 635.094 233.812 635.594 234.828C635.953 235.531 636.078 236.227 636.078 236.969C636.078 237.336 636.055 237.586 636.008 237.719H630.648C630.828 238.859 631.484 239.43 632.602 239.43C633.359 239.43 633.984 239.156 634.477 238.602L635.789 239.75C634.945 240.688 633.875 241.156 632.586 241.156ZM630.648 236.344H634.203C634.203 236.156 634.18 235.992 634.141 235.852C633.953 235.07 633.297 234.633 632.445 234.633C631.453 234.633 630.859 235.203 630.648 236.344ZM640.617 241.031H638.898L636.5 233.195H638.531L639.859 238.086L641.336 233.195H642.969L644.438 238.07L645.781 233.195H647.812L645.398 241H643.688L642.148 235.883L640.617 241.031ZM657.156 241H655.242L651.93 229.961H653.992L656.344 238.086L658.789 230.602H660.328L662.773 238.086L665.125 229.961H667.188L663.875 241H661.961L659.555 233.734L657.156 241ZM672.82 240.828C672.312 241.047 671.766 241.156 671.18 241.156C670.594 241.156 670.047 241.047 669.539 240.828C669.031 240.609 668.609 240.312 668.273 239.945C667.586 239.203 667.18 238.18 667.18 237.078C667.18 235.609 667.852 234.328 669.086 233.586C669.703 233.219 670.398 233.031 671.18 233.031C671.961 233.031 672.664 233.219 673.281 233.586C673.898 233.953 674.367 234.445 674.695 235.055C675.016 235.672 675.18 236.344 675.18 237.078C675.18 238.742 674.297 240.188 672.82 240.828ZM671.18 239.516C671.859 239.516 672.359 239.281 672.695 238.82C673.031 238.359 673.195 237.781 673.195 237.078C673.219 235.781 672.602 234.695 671.18 234.68C670.5 234.68 670 234.906 669.664 235.352C669.328 235.805 669.164 236.383 669.164 237.078C669.164 237.977 669.398 238.695 670.023 239.164C670.336 239.398 670.719 239.516 671.18 239.516ZM678.57 241H676.727V233.195H678.586V234.508C678.75 234.047 679.023 233.688 679.414 233.422C679.805 233.164 680.227 233.031 680.68 233.031C681.266 233.031 681.742 233.219 682.109 233.594L681.242 235.156C680.977 234.977 680.695 234.891 680.391 234.891C679.898 234.891 679.469 235.125 679.109 235.602C678.75 236.078 678.57 236.773 678.57 237.703V241ZM685.07 241H683.164V229.961H685.07V236.438L688.016 233.195H690.492L687.57 236.219L690.812 241H688.562L686.273 237.383L685.07 238.711V241ZM698.688 241.156C698.18 241.156 697.781 241.031 697.492 240.773C697.203 240.523 697.055 240.078 697.055 239.445V231.609C696.633 231.43 696.156 231.336 695.625 231.336C694.633 231.336 694.141 231.852 694.141 232.664V233.195H695.727L695.711 234.789H694.141V241H692.234V234.789H690.953V233.195H692.234V232.633C692.234 231.477 692.906 230.562 693.898 230.125C694.391 229.906 694.938 229.797 695.531 229.797C696.211 229.797 696.773 229.852 697.234 229.953C697.688 230.062 698.258 230.289 698.953 230.633V238.922C698.953 239.273 699.164 239.445 699.578 239.445C699.727 239.445 699.898 239.43 700.109 239.398V241C699.578 241.102 699.102 241.156 698.688 241.156ZM706.492 240.828C705.984 241.047 705.438 241.156 704.852 241.156C704.266 241.156 703.719 241.047 703.211 240.828C702.703 240.609 702.281 240.312 701.945 239.945C701.258 239.203 700.852 238.18 700.852 237.078C700.852 235.609 701.523 234.328 702.758 233.586C703.375 233.219 704.07 233.031 704.852 233.031C705.633 233.031 706.336 233.219 706.953 233.586C707.57 233.953 708.039 234.445 708.367 235.055C708.688 235.672 708.852 236.344 708.852 237.078C708.852 238.742 707.969 240.188 706.492 240.828ZM704.852 239.516C705.531 239.516 706.031 239.281 706.367 238.82C706.703 238.359 706.867 237.781 706.867 237.078C706.891 235.781 706.273 234.695 704.852 234.68C704.172 234.68 703.672 234.906 703.336 235.352C703 235.805 702.836 236.383 702.836 237.078C702.836 237.977 703.07 238.695 703.695 239.164C704.008 239.398 704.391 239.516 704.852 239.516ZM713.242 241.031H711.523L709.125 233.195H711.156L712.484 238.086L713.961 233.195H715.594L717.062 238.07L718.406 233.195H720.438L718.023 241H716.312L714.773 235.883L713.242 241.031ZM723.984 241.156C723.188 241.156 722.492 240.945 721.898 240.531C721.305 240.117 720.906 239.594 720.711 238.969L722.227 238.297C722.547 239.148 723.102 239.578 723.891 239.578C724.703 239.578 725.156 239.125 725.156 238.648C725.156 237.891 723.875 237.875 722.781 237.453C721.961 237.164 721.227 236.633 721.234 235.461C721.234 234.406 721.859 233.625 722.711 233.281C723.141 233.117 723.609 233.031 724.133 233.031C725.453 233.031 726.492 233.656 727.094 234.727L725.617 235.531C725.25 234.867 724.734 234.539 724.07 234.539C723.469 234.539 723.062 234.836 723.062 235.211C723.062 235.891 724.359 235.938 725.469 236.406C726.297 236.734 727.039 237.344 727.031 238.555C727.031 240.359 725.453 241.156 723.984 241.156Z" fill="#6760F5"/>
<path d="M790.523 241.133C787.125 241.133 785.406 238.656 785.406 235.469C785.406 233.852 785.844 232.469 786.68 231.445C787.516 230.422 788.875 229.812 790.562 229.812C792.742 229.812 794.32 230.859 795.156 232.859L793.93 233.375C793.375 231.805 792.25 231.023 790.547 231.023C787.992 231.023 786.773 232.906 786.773 235.414C786.773 236.688 787.062 237.75 787.656 238.578C788.242 239.406 789.242 239.898 790.523 239.898C792.406 239.898 793.656 238.898 793.914 237.055L793.945 236.336H791.32V235.219H795.297V241H794.203L794.086 239.156C793.398 240.414 792.148 241.133 790.523 241.133ZM800.938 241.133C799.742 241.133 798.75 240.68 798.141 239.953C797.531 239.227 797.195 238.25 797.195 237.133C797.195 236.039 797.508 235.047 798.102 234.289C798.688 233.539 799.648 233.062 800.805 233.062C803.422 233.062 804.281 235.164 804.273 236.773C804.273 237.094 804.25 237.336 804.211 237.492H798.594C798.695 239.023 799.508 239.93 800.945 239.93C801.82 239.93 802.461 239.672 803.094 238.992L804.016 239.797C803.148 240.727 802.211 241.133 800.938 241.133ZM798.594 236.523H802.961C802.961 236.297 802.953 236.133 802.93 236.031C802.859 235.508 802.641 235.062 802.273 234.711C801.906 234.359 801.414 234.18 800.797 234.18C799.516 234.18 798.75 235.094 798.594 236.523ZM808.719 241.133C807.289 241.133 806.492 240.289 806.492 238.82V234.312H805.203V233.195H806.508V231.039L807.812 230.086V233.195H809.922V234.312H807.812V238.602C807.812 239.562 808.195 239.961 808.945 239.961C809.266 239.961 809.594 239.891 809.914 239.742L809.922 240.945C809.586 241.07 809.188 241.133 808.719 241.133ZM817.211 231.617H815.828V229.961H817.211V231.617ZM817.18 241H815.859V233.195H817.18V241ZM821.117 241H819.797V233.195H821.117V234.383C821.641 233.516 822.531 233.062 823.508 233.062C825.398 233.055 826.25 234.469 826.266 236.141V241H824.945V236.383C824.945 235.07 824.312 234.289 823.148 234.289C821.875 234.289 821.117 235.062 821.117 236.5V241ZM836.875 241H835.5V231.195H831.781V229.961H840.594V231.195H836.875V241ZM845.914 240.586C845.32 240.953 844.648 241.133 843.906 241.133C843.164 241.133 842.492 240.953 841.906 240.586C840.719 239.859 840.062 238.57 840.062 237.078C840.062 234.859 841.609 233.062 843.906 233.062C846.148 233.023 847.812 234.898 847.766 237.078C847.766 238.57 847.102 239.859 845.914 240.586ZM843.906 239.984C845.492 239.992 846.422 238.648 846.391 237.078C846.391 236.258 846.172 235.57 845.734 235.023C845.289 234.484 844.68 234.211 843.906 234.211C843.133 234.211 842.531 234.484 842.094 235.023C841.656 235.57 841.438 236.258 841.438 237.078C841.438 237.906 841.656 238.594 842.094 239.148C842.531 239.703 843.133 239.984 843.906 239.984ZM852.195 241.133C850.305 241.133 849.469 239.711 849.445 238.047V233.195H850.758V237.812C850.758 239.125 851.391 239.906 852.555 239.906C853.828 239.906 854.594 239.133 854.594 237.695V233.195H855.906V241H854.594V239.812C854.086 240.68 853.172 241.133 852.195 241.133ZM861.43 241.133C860.297 241.133 859.336 240.672 858.75 239.93C858.156 239.188 857.828 238.203 857.828 237.109C857.828 235.062 859 233.062 861.414 233.062C862.891 233.062 864.062 233.82 864.633 235.258L863.375 235.75C863.062 234.836 862.328 234.266 861.414 234.266C859.859 234.266 859.164 235.672 859.172 237.109C859.172 237.906 859.359 238.578 859.742 239.117C860.125 239.656 860.68 239.93 861.414 239.93C862.344 239.93 863.07 239.367 863.352 238.469L864.555 238.922C864.062 240.32 862.906 241.133 861.43 241.133ZM867.75 241H866.406V229.961H867.75V234.383C868.273 233.516 869.141 233.062 870.117 233.062C872.008 233.055 872.883 234.469 872.898 236.141V241H871.555V236.383C871.555 234.969 870.977 234.266 869.812 234.266C869.164 234.266 868.656 234.492 868.297 234.938C867.93 235.391 867.75 235.984 867.75 236.711V241Z" fill="white"/>
<path d="M784.5 241.641H874V242.281H784.5V241.641Z" fill="white"/>
</svg>
