<svg width="230" height="150" viewBox="0 0 230 150" fill="none" xmlns="http://www.w3.org/2000/svg">
<rect width="230" height="150" fill="#1E1E1E"/>
<g id="Desktop">
<path d="M-1592 -11215C-1592 -11216.1 -1591.1 -11217 -1590 -11217H4280C4281.1 -11217 4282 -11216.1 4282 -11215V3455C4282 3456.1 4281.1 3457 4280 3457H-1590C-1591.1 3457 -1592 3456.1 -1592 3455V-11215Z" fill="#404040"/>
<path d="M-1590 -11216H4280V-11218H-1590V-11216ZM4281 -11215V3455H4283V-11215H4281ZM4280 3456H-1590V3458H4280V3456ZM-1591 3455V-11215H-1593V3455H-1591ZM-1590 3456C-1590.55 3456 -1591 3455.55 -1591 3455H-1593C-1593 3456.66 -1591.66 3458 -1590 3458V3456ZM4281 3455C4281 3455.55 4280.55 3456 4280 3456V3458C4281.66 3458 4283 3456.66 4283 3455H4281ZM4280 -11216C4280.55 -11216 4281 -11215.6 4281 -11215H4283C4283 -11216.7 4281.66 -11218 4280 -11218V-11216ZM-1590 -11218C-1591.66 -11218 -1593 -11216.7 -1593 -11215H-1591C-1591 -11215.6 -1590.55 -11216 -1590 -11216V-11218Z" fill="white" fill-opacity="0.1"/>
<g id="Prism Flex_#D v3" clip-path="url(#clip0_603_75686)">
<rect width="1464" height="14474" transform="translate(-309 -11137)" fill="black"/>
<g id="_Prism Flex - Native Cloud Integrations #D v3">
<g id="_Native Cloud Integrations %SHARED SECTION" clip-path="url(#clip1_603_75686)">
<rect id="BG" x="-309" y="-269" width="1460" height="1040" fill="#1C162C"/>
<g id="Clouds">
<g id="Clouds_2">
<g id="Vector" opacity="0.2" filter="url(#filter0_f_603_75686)">
<path d="M-130.087 237H-51.1046C7.05291 237 54.2055 189.837 54.2055 131.667C54.2055 73.4963 7.05291 26.3333 -51.1046 26.3333C-51.3284 26.3333 -51.539 26.3992 -51.7627 26.3992C-58.5421 -76.5378 -143.935 -158 -248.561 -158C-354.371 -158 -440.502 -74.6813 -445.53 29.9015C-491.13 41.4882 -525 82.4628 -525 131.667C-525 189.837 -477.847 237 -419.69 237H-130.087Z" stroke="#6760F5" stroke-width="3" stroke-miterlimit="10" stroke-linecap="round" stroke-linejoin="round"/>
</g>
</g>
</g>
<g id="Blocks">
<g id="Cards">
<g id="_Brand Cards">
<rect x="-119" y="-53" width="1080" height="256" rx="16" fill="black"/>
<g id="Brand Logos/Core (Large)">
<g id="Core">
<path id="Vector_2" d="M185.424 150H41.6065C18.6621 150 0 131.403 0 108.538C0 88.7093 13.987 71.7636 33.3964 67.8971C33.1185 66.0928 32.9844 64.2789 32.9844 62.5032C32.9844 42.6935 49.1557 26.5689 69.0441 26.5689C74.9933 26.5689 80.8564 28.0391 86.0775 30.8363C96.175 11.7903 115.747 0 137.398 0C169.396 0 195.435 25.9388 195.435 57.8348C195.435 59.2668 195.377 60.7275 195.253 62.255C215.438 66.7802 230 84.8619 230 105.579C230 130.066 210.006 149.99 185.433 149.99L185.424 150ZM69.0441 28.4878C50.2191 28.4878 34.9004 43.7532 34.9004 62.5127C34.9004 64.4794 35.0825 66.4938 35.4369 68.4986L35.5998 69.4437L34.6513 69.606C15.6827 72.9474 1.90644 89.3203 1.90644 108.538C1.90644 130.343 19.7063 148.091 41.597 148.091H185.414C208.933 148.091 228.065 129.026 228.065 105.588C228.065 85.492 213.742 67.9831 194.017 63.9543L193.174 63.7825L193.251 62.9328C193.413 61.138 193.49 59.4768 193.49 57.8443C193.49 27.008 168.313 1.91891 137.37 1.91891C116.121 1.91891 96.9319 13.6711 87.3038 32.5834L86.8439 33.4808L85.9722 32.9843C80.8276 30.0439 74.9646 28.4878 69.0153 28.4878H69.0441Z" fill="white"/>
<g id="b">
<g id="Group">
<path id="Vector_3" d="M42.8255 91.3924C39.0414 91.3637 34.2992 91.7456 31.1952 94.8101C29.1068 96.8627 28.0625 99.889 28.0625 103.784V114.037C28.0625 117.933 29.1068 120.959 31.1952 123.012C34.2417 126.009 38.8019 126.429 42.5285 126.429H65.4059V118.343H42.8351C40.6604 118.286 37.4031 118.19 37.4031 113.111V104.729C37.4031 99.6217 40.6795 99.5263 42.8351 99.4976H65.4442V91.4115C65.4442 91.4115 45.4313 91.3828 42.8351 91.3828" fill="white"/>
<path id="Vector_4" d="M173.325 100.548C174.455 99.4215 176.189 99.4501 177.349 99.4787H202.401V91.2207H177.167C167.27 91.2207 162.672 95.2018 162.672 103.765V113.933C162.672 122.496 167.261 126.477 177.167 126.477H202.401V118.181H177.349C176.218 118.21 174.484 118.238 173.325 117.112C172.463 116.253 172.013 114.821 172.013 112.863V112.749H199.479V104.901H172.013V104.787C172.013 102.858 172.434 101.426 173.325 100.567" fill="white"/>
<path id="Vector_5" d="M153.619 112.109C155.621 110.448 156.541 107.775 156.541 103.727C156.541 97.9035 155.382 94.5717 152.814 92.8819C150.314 91.2207 146.549 91.2207 142.199 91.2207H117.895V126.468H127.139V114.792H133.702L144.738 126.439H156.723L145.179 114.458C149.202 114.343 151.827 113.599 153.619 112.109ZM147.267 106.496C146.577 107.212 144.882 107.536 142.046 107.536H127.044V99.0109H142.046C144.757 99.0109 146.434 99.3642 147.171 100.137C147.794 100.758 147.737 103.021 147.737 103.173C147.737 103.975 147.765 105.971 147.258 106.505" fill="white"/>
<path id="Vector_6" d="M94.3008 111.688H108.345L104.916 115.144L110.913 121.111L103.756 128.214L97.7592 122.247L94.3008 125.694V111.688Z" fill="white"/>
<path id="Vector_7" d="M88.5802 111.688V125.694L85.1506 122.247L79.0001 128.367L71.8438 121.235L77.9846 115.144L74.5262 111.688H88.5802Z" fill="white"/>
<path id="Vector_8" d="M94.3008 105.808H108.345L104.916 102.39L110.913 96.4137L103.756 89.2822L97.7592 95.2586L94.3008 91.8408V105.808Z" fill="white"/>
<path id="Vector_9" d="M88.5802 105.808V91.8411L85.1506 95.2589L79.0001 89.168L71.8438 96.2995L77.9846 102.39L74.5262 105.808H88.5802Z" fill="white"/>
</g>
</g>
</g>
</g>
</g>
</g>
</g>
</g>
</g>
</g>
</g>
<defs>
<filter id="filter0_f_603_75686" x="-532.5" y="-165.5" width="594.205" height="410" filterUnits="userSpaceOnUse" color-interpolation-filters="sRGB">
<feFlood flood-opacity="0" result="BackgroundImageFix"/>
<feBlend mode="normal" in="SourceGraphic" in2="BackgroundImageFix" result="shape"/>
<feGaussianBlur stdDeviation="3" result="effect1_foregroundBlur_603_75686"/>
</filter>
<clipPath id="clip0_603_75686">
<rect width="1464" height="14474" fill="white" transform="translate(-309 -11137)"/>
</clipPath>
<clipPath id="clip1_603_75686">
<rect width="1464" height="1040" fill="white" transform="translate(-309 -269)"/>
</clipPath>
</defs>
</svg>
