<svg width="150" height="44" viewBox="0 0 150 44" fill="none" xmlns="http://www.w3.org/2000/svg">
<path d="M144 43.2002H5.53846C2.49369 43.2002 0 40.7688 0 37.8002V5.4002C0 2.43155 2.49369 0.000198364 5.53846 0.000198364H144C147.045 0.000198364 149.538 2.43155 149.538 5.4002V37.8002C149.538 40.7688 147.045 43.2002 144 43.2002Z" fill="black"/>
<path d="M144 0.865547C146.564 0.865547 148.651 2.9 148.651 5.4002V37.8002C148.651 40.3004 146.564 42.3348 144 42.3348H5.53846C2.97415 42.3348 0.887538 40.3004 0.887538 37.8002V5.4002C0.887538 2.9 2.97415 0.865547 5.53846 0.865547H144ZM144 0.000198364H5.53846C2.49369 0.000198364 0 2.43155 0 5.4002V37.8002C0 40.7688 2.49369 43.2002 5.53846 43.2002H144C147.045 43.2002 149.538 40.7688 149.538 37.8002V5.4002C149.538 2.43155 147.045 0.000198364 144 0.000198364Z" fill="#A6A6A6"/>
<path d="M11.5586 8.14211C11.2332 8.47421 11.0449 8.99127 11.0449 9.66087V33.5451C11.0449 34.2147 11.2332 34.7317 11.5586 35.0638L11.6389 35.1367L25.366 21.7582V21.4423L11.6389 8.06382L11.5586 8.14211Z" fill="url(#paint0_linear_4239_1334)"/>
<path d="M29.9359 26.2207L25.3652 21.759V21.4431L29.9414 16.9813L30.0439 17.0394L35.4632 20.0458C37.0099 20.899 37.0099 22.303 35.4632 23.1616L30.0439 26.1627L29.9359 26.2207Z" fill="url(#paint1_linear_4239_1334)"/>
<path d="M30.0446 26.1623L25.366 21.6006L11.5586 35.0642C12.0723 35.5907 12.91 35.6541 13.8626 35.1276L30.0446 26.1623Z" fill="url(#paint2_linear_4239_1334)"/>
<path d="M30.0446 17.0389L13.8626 8.07359C12.91 7.55249 12.0723 7.61594 11.5586 8.14244L25.366 21.6006L30.0446 17.0389Z" fill="url(#paint3_linear_4239_1334)"/>
<path d="M52.5248 11.0631C52.5248 11.9649 52.2479 12.6872 51.7023 13.2258C51.0751 13.8644 50.2582 14.1857 49.2571 14.1857C48.3003 14.1857 47.4834 13.859 46.8133 13.215C46.1417 12.5616 45.8066 11.7597 45.8066 10.7999C45.8066 9.84001 46.1417 9.03811 46.8133 8.39011C47.4834 7.74076 48.3003 7.41406 49.2571 7.41406C49.7334 7.41406 50.1876 7.50991 50.6209 7.68811C51.0529 7.86766 51.4046 8.11066 51.6594 8.41036L51.0806 8.98006C50.6362 8.46841 50.0311 8.21596 49.2571 8.21596C48.5593 8.21596 47.9542 8.45356 47.4405 8.93281C46.9323 9.41341 46.6776 10.0358 46.6776 10.7999C46.6776 11.564 46.9323 12.1917 47.4405 12.6723C47.9542 13.1462 48.5593 13.3892 49.2571 13.3892C49.9979 13.3892 50.621 13.1462 51.1125 12.6669C51.4365 12.3497 51.6206 11.9123 51.6691 11.3534H49.2571V10.5731H52.475C52.5137 10.7418 52.5248 10.9052 52.5248 11.0631Z" fill="white" stroke="white" stroke-width="0.16" stroke-miterlimit="10"/>
<path d="M57.6303 8.35765H54.6076V10.4096H57.3326V11.1899H54.6076V13.2419H57.6303V14.0371H53.752V7.5625H57.6303V8.35765Z" fill="white" stroke="white" stroke-width="0.16" stroke-miterlimit="10"/>
<path d="M61.2331 14.0371H60.3774V8.35765H58.5234V7.5625H63.0885V8.35765H61.2331V14.0371Z" fill="white" stroke="white" stroke-width="0.16" stroke-miterlimit="10"/>
<path d="M66.3926 14.0371V7.5625H67.2469V14.0371H66.3926Z" fill="white" stroke="white" stroke-width="0.16" stroke-miterlimit="10"/>
<path d="M71.0339 14.0371H70.1851V8.35765H68.3242V7.5625H72.8948V8.35765H71.0339V14.0371Z" fill="white" stroke="white" stroke-width="0.16" stroke-miterlimit="10"/>
<path d="M81.5364 13.2042C80.8814 13.859 80.0701 14.1857 79.1022 14.1857C78.1288 14.1857 77.3174 13.859 76.6625 13.2042C76.009 12.5508 75.6836 11.7489 75.6836 10.7999C75.6836 9.85081 76.009 9.04891 76.6625 8.39551C77.3174 7.74076 78.1288 7.41406 79.1022 7.41406C80.0645 7.41406 80.8759 7.74076 81.5308 8.40091C82.1899 9.05971 82.5153 9.85621 82.5153 10.7999C82.5153 11.7489 82.1899 12.5508 81.5364 13.2042ZM77.2953 12.6615C77.7882 13.1462 78.3877 13.3892 79.1022 13.3892C79.8111 13.3892 80.4162 13.1462 80.9036 12.6615C81.3951 12.1769 81.6444 11.5545 81.6444 10.7999C81.6444 10.0452 81.3951 9.42286 80.9036 8.93821C80.4162 8.45356 79.8111 8.21056 79.1022 8.21056C78.3877 8.21056 77.7882 8.45356 77.2953 8.93821C76.8037 9.42286 76.5545 10.0452 76.5545 10.7999C76.5545 11.5545 76.8037 12.1769 77.2953 12.6615Z" fill="white" stroke="white" stroke-width="0.16" stroke-miterlimit="10"/>
<path d="M83.7168 14.0371V7.5625H84.7553L87.9842 12.598H88.0216L87.9842 11.3533V7.5625H88.8385V14.0371H87.9468L84.5656 8.7532H84.5282L84.5656 10.0033V14.0371H83.7168Z" fill="white" stroke="white" stroke-width="0.16" stroke-miterlimit="10"/>
<path d="M75.4719 23.4927C72.8702 23.4927 70.7448 25.4232 70.7448 28.0868C70.7448 30.7287 72.8702 32.6795 75.4719 32.6795C78.0791 32.6795 80.2045 30.7287 80.2045 28.0868C80.2045 25.4232 78.0791 23.4927 75.4719 23.4927ZM75.4719 30.8705C74.0444 30.8705 72.8162 29.7216 72.8162 28.0868C72.8162 26.4303 74.0444 25.3017 75.4719 25.3017C76.8994 25.3017 78.1331 26.4303 78.1331 28.0868C78.1331 29.7216 76.8994 30.8705 75.4719 30.8705ZM65.1579 23.4927C62.5507 23.4927 60.4308 25.4232 60.4308 28.0868C60.4308 30.7287 62.5507 32.6795 65.1579 32.6795C67.7637 32.6795 69.885 30.7287 69.885 28.0868C69.885 25.4232 67.7637 23.4927 65.1579 23.4927ZM65.1579 30.8705C63.729 30.8705 62.4967 29.7216 62.4967 28.0868C62.4967 26.4303 63.729 25.3017 65.1579 25.3017C66.5854 25.3017 67.8136 26.4303 67.8136 28.0868C67.8136 29.7216 66.5854 30.8705 65.1579 30.8705ZM52.8847 24.9008V26.8529H57.6657C57.5259 27.9437 57.1521 28.7456 56.5788 29.3045C55.881 29.9795 54.7941 30.7287 52.8847 30.7287C49.9424 30.7287 47.6384 28.4135 47.6384 25.5447C47.6384 22.676 49.9424 20.3607 52.8847 20.3607C54.4756 20.3607 55.6331 20.9669 56.4874 21.7526L57.8984 20.3769C56.7034 19.2645 55.1139 18.41 52.8847 18.41C48.8499 18.41 45.459 21.6108 45.459 25.5447C45.459 29.4786 48.8499 32.6795 52.8847 32.6795C55.0654 32.6795 56.7034 31.9829 57.9911 30.6761C59.3107 29.3895 59.7219 27.5805 59.7219 26.1198C59.7219 25.6662 59.6831 25.2491 59.6139 24.9008H52.8847ZM103.071 26.4141C102.682 25.3868 101.482 23.4927 99.0367 23.4927C96.6136 23.4927 94.5962 25.3544 94.5962 28.0868C94.5962 30.6599 96.5928 32.6795 99.2693 32.6795C101.433 32.6795 102.682 31.3929 103.196 30.6437L101.59 29.6001C101.054 30.3642 100.324 30.8705 99.2693 30.8705C98.2211 30.8705 97.4693 30.402 96.9874 29.4786L103.289 26.9366L103.071 26.4141ZM96.6468 27.9437C96.5928 26.1725 98.0577 25.2653 99.1073 25.2653C99.9297 25.2653 100.628 25.6662 100.86 26.24L96.6468 27.9437ZM91.5251 32.4H93.5965V18.9H91.5251V32.4ZM88.1328 24.516H88.0636C87.5983 23.9787 86.7108 23.4927 85.5865 23.4927C83.2271 23.4927 81.0699 25.5123 81.0699 28.1016C81.0699 30.6761 83.2271 32.6795 85.5865 32.6795C86.7108 32.6795 87.5983 32.1894 88.0636 31.6359H88.1328V32.2947C88.1328 34.0511 87.1705 34.9947 85.6184 34.9947C84.3528 34.9947 83.5677 34.1037 83.2437 33.3545L81.4424 34.0875C81.9616 35.3052 83.3365 36.8037 85.6184 36.8037C88.047 36.8037 90.0962 35.4105 90.0962 32.0207V23.7722H88.1328V24.516ZM85.7637 30.8705C84.3362 30.8705 83.1413 29.7054 83.1413 28.1016C83.1413 26.483 84.3362 25.3017 85.7637 25.3017C87.1705 25.3017 88.2796 26.483 88.2796 28.1016C88.2796 29.7054 87.1705 30.8705 85.7637 30.8705ZM112.769 18.9H107.815V32.4H109.881V27.2849H112.769C115.064 27.2849 117.314 25.6662 117.314 23.0918C117.314 20.5187 115.058 18.9 112.769 18.9ZM112.823 25.407H109.881V20.7779H112.823C114.366 20.7779 115.246 22.0266 115.246 23.0918C115.246 24.1367 114.366 25.407 112.823 25.407ZM125.594 23.4671C124.101 23.4671 122.549 24.1097 121.91 25.5339L123.744 26.2832C124.138 25.5339 124.864 25.2909 125.631 25.2909C126.703 25.2909 127.79 25.9187 127.806 27.027V27.1688C127.432 26.9582 126.632 26.6463 125.648 26.6463C123.673 26.6463 121.661 27.7061 121.661 29.6838C121.661 31.4928 123.278 32.6579 125.096 32.6579C126.487 32.6579 127.254 32.0463 127.736 31.3349H127.806V32.3784H129.801V27.1998C129.801 24.8063 127.968 23.4671 125.594 23.4671ZM125.344 30.8651C124.669 30.8651 123.727 30.5384 123.727 29.7216C123.727 28.6767 124.901 28.2758 125.918 28.2758C126.827 28.2758 127.254 28.4715 127.806 28.7294C127.644 29.9795 126.541 30.8651 125.344 30.8651ZM137.071 23.7627L134.696 29.615H134.625L132.17 23.7627H129.943L133.631 31.941L131.527 36.4919H133.685L139.369 23.7627H137.071ZM118.449 32.4H120.52V18.9H118.449V32.4Z" fill="white"/>
<defs>
<linearGradient id="paint0_linear_4239_1334" x1="24.1472" y1="33.7938" x2="6.02801" y2="15.21" gradientUnits="userSpaceOnUse">
<stop stop-color="#00A0FF"/>
<stop offset="0.0066" stop-color="#00A1FF"/>
<stop offset="0.2601" stop-color="#00BEFF"/>
<stop offset="0.5122" stop-color="#00D2FF"/>
<stop offset="0.7604" stop-color="#00DFFF"/>
<stop offset="1" stop-color="#00E3FF"/>
</linearGradient>
<linearGradient id="paint1_linear_4239_1334" x1="37.4772" y1="21.5995" x2="10.6745" y2="21.5995" gradientUnits="userSpaceOnUse">
<stop stop-color="#FFE000"/>
<stop offset="0.4087" stop-color="#FFBD00"/>
<stop offset="0.7754" stop-color="#FFA500"/>
<stop offset="1" stop-color="#FF9C00"/>
</linearGradient>
<linearGradient id="paint2_linear_4239_1334" x1="27.5005" y1="19.1208" x2="2.92941" y2="-6.08029" gradientUnits="userSpaceOnUse">
<stop stop-color="#FF3A44"/>
<stop offset="1" stop-color="#C31162"/>
</linearGradient>
<linearGradient id="paint3_linear_4239_1334" x1="8.08299" y1="43.0103" x2="19.0551" y2="31.757" gradientUnits="userSpaceOnUse">
<stop stop-color="#32A071"/>
<stop offset="0.0685" stop-color="#2DA771"/>
<stop offset="0.4762" stop-color="#15CF74"/>
<stop offset="0.8009" stop-color="#06E775"/>
<stop offset="1" stop-color="#00F076"/>
</linearGradient>
</defs>
</svg>
