<svg width="118" height="69" viewBox="0 0 118 69" fill="none" xmlns="http://www.w3.org/2000/svg">
<rect width="118" height="69" fill="#1E1E1E"/>
<g id="Desktop">
<path d="M-1954 -11467C-1954 -11468.1 -1953.1 -11469 -1952 -11469H3918C3919.1 -11469 3920 -11468.1 3920 -11467V3203C3920 3204.1 3919.1 3205 3918 3205H-1952C-1953.1 3205 -1954 3204.1 -1954 3203V-11467Z" fill="#404040"/>
<path d="M-1952 -11468H3918V-11470H-1952V-11468ZM3919 -11467V3203H3921V-11467H3919ZM3918 3204H-1952V3206H3918V3204ZM-1953 3203V-11467H-1955V3203H-1953ZM-1952 3204C-1952.55 3204 -1953 3203.55 -1953 3203H-1955C-1955 3204.66 -1953.66 3206 -1952 3206V3204ZM3919 3203C3919 3203.55 3918.55 3204 3918 3204V3206C3919.66 3206 3921 3204.66 3921 3203H3919ZM3918 -11468C3918.55 -11468 3919 -11467.6 3919 -11467H3921C3921 -11468.7 3919.66 -11470 3918 -11470V-11468ZM-1952 -11470C-1953.66 -11470 -1955 -11468.7 -1955 -11467H-1953C-1953 -11467.6 -1952.55 -11468 -1952 -11468V-11470Z" fill="white" fill-opacity="0.1"/>
<g id="Prism Flex_#D v3" clip-path="url(#clip0_603_75686)">
<rect width="1464" height="14474" transform="translate(-671 -11389)" fill="black"/>
<g id="_Prism Flex - Native Cloud Integrations #D v3">
<g id="_Native Cloud Integrations %SHARED SECTION" clip-path="url(#clip1_603_75686)">
<rect id="BG" x="-671" y="-521" width="1460" height="1040" fill="#1C162C"/>
<g id="Clouds">
<g id="Clouds_2">
</g>
</g>
<g id="Blocks">
<g id="Cards">
<g id="Bottom Cards">
<g id="_Brand Cards">
<rect x="-113" y="-33" width="344" height="480" rx="16" fill="black"/>
<g id="Auto-Layout">
<g id="_Brand Logos">
<g id="Sony Ci">
<path id="Vector" d="M21.5315 28.5013C15.8276 28.5013 11.2109 24.3384 11.2109 19.1921C11.2109 14.0457 15.8276 9.88281 21.5315 9.88281C23.1535 9.88281 24.6686 10.2106 26.0411 10.817V12.4887C24.7399 11.7676 23.1892 11.3579 21.5315 11.3579C16.7366 11.3579 12.8508 14.8652 12.8508 19.1757C12.8508 23.5025 16.7366 26.9935 21.5315 26.9935C23.1714 26.9935 24.7221 26.5837 26.0411 25.8626V27.5671C24.6686 28.1735 23.1535 28.5013 21.5315 28.5013Z" fill="#1E90FF"/>
<path id="Vector_2" d="M28.7695 25.7481V17.373H30.3025V24.1091C29.8925 24.6992 29.3934 25.2564 28.8587 25.7481H28.7695Z" fill="#1E90FF"/>
<path id="Vector_3" d="M27.7188 14.2586C27.7188 15.1436 28.503 15.8484 29.4834 15.8484C30.0181 15.8484 30.5172 15.6189 30.8381 15.2747C30.339 14.3405 29.6795 13.4719 28.8952 12.7344C28.2178 12.9638 27.7188 13.5539 27.7188 14.2586Z" fill="#1E90FF"/>
<path id="Vector_4" fill-rule="evenodd" clip-rule="evenodd" d="M1.07031 5.81828C1.07031 2.60593 3.90445 0 7.41593 0H34.67C38.1637 0 41.0156 2.60593 41.0156 5.81828V31.9923C41.0156 35.2047 38.1815 37.8106 34.67 37.8106H7.41593C3.92228 37.8106 1.07031 35.2047 1.07031 31.9923V5.81828ZM7.41593 1.16366H34.67C37.4685 1.16366 39.7322 3.24512 39.7322 5.81828V31.9923C39.7322 34.5655 37.4685 36.6469 34.67 36.6469H7.41593C4.61744 36.6469 2.3537 34.5655 2.3537 31.9923V5.81828C2.33587 3.24512 4.59962 1.16366 7.41593 1.16366Z" fill="#1E90FF"/>
<path id="Vector_5" d="M56.9161 8.11187C56.417 8.11187 55.9892 8.19382 55.6149 8.37411C55.2406 8.55439 54.9197 8.80023 54.6702 9.12802C54.4206 9.45581 54.2245 9.84916 54.0998 10.3245C53.975 10.7834 53.9037 11.3078 53.9037 11.8979C53.9037 12.6845 54.0106 13.3565 54.2245 13.9138C54.4384 14.471 54.7771 14.8971 55.2227 15.1758C55.6683 15.4708 56.2387 15.6019 56.9517 15.6019C57.4508 15.6019 57.9321 15.5527 58.4312 15.4544C58.9303 15.356 59.465 15.2085 60.0354 15.0282V17.0114C59.5007 17.2081 58.9659 17.3556 58.449 17.4375C57.9321 17.5358 57.3439 17.5686 56.7022 17.5686C55.4544 17.5686 54.4384 17.3392 53.6185 16.8639C52.8164 16.3886 52.2282 15.7166 51.836 14.8644C51.4439 14.0121 51.2656 13.0123 51.2656 11.8651C51.2656 11.0292 51.3904 10.2589 51.64 9.55415C51.8895 8.8494 52.246 8.24299 52.7273 7.73492C53.2085 7.22684 53.7967 6.83349 54.5097 6.55487C55.2227 6.27625 56.0248 6.12874 56.9339 6.12874C57.54 6.12874 58.1282 6.1943 58.7342 6.34181C59.3403 6.47292 59.9106 6.6696 60.4632 6.91544L59.6433 8.83301C59.1976 8.63634 58.7342 8.45605 58.2708 8.30855C57.8073 8.19382 57.3617 8.11187 56.9161 8.11187ZM64.0638 8.93135V17.4375H61.5505V8.93135H64.0638ZM62.7983 5.60428C63.1726 5.60428 63.4934 5.68623 63.7608 5.85012C64.0282 6.01402 64.1708 6.30903 64.1708 6.73516C64.1708 7.16128 64.0282 7.47268 63.7608 7.63658C63.4934 7.80047 63.1726 7.88242 62.7983 7.88242C62.4239 7.88242 62.0853 7.80047 61.8179 7.63658C61.5505 7.47268 61.4257 7.17767 61.4257 6.73516C61.4257 6.29264 61.5505 5.99763 61.8179 5.85012C62.1031 5.66984 62.4239 5.60428 62.7983 5.60428ZM74.7409 17.4211L71.8354 8.7019H71.7463C71.7641 8.91496 71.7819 9.22636 71.7998 9.65249C71.8354 10.0622 71.8532 10.5047 71.8711 10.98C71.8889 11.4553 71.9067 11.8815 71.9067 12.2584V17.4211H69.6251V6.30903H73.1188L75.9708 14.8152H76.0242L79.0544 6.30903H82.5481V17.4211H80.1596V12.1601C80.1596 11.8159 80.1596 11.4062 80.1774 10.9473C80.1952 10.4884 80.2131 10.0622 80.2309 9.65249C80.2487 9.24275 80.2665 8.93135 80.2844 8.71829H80.2131L77.0937 17.4211H74.7409ZM88.359 8.76746C89.2146 8.76746 89.9454 8.91496 90.5692 9.22636C91.1931 9.52137 91.6566 9.96389 91.9952 10.5375C92.3339 11.1112 92.4943 11.8159 92.4943 12.6354V13.7663H86.5409C86.5765 14.4218 86.7726 14.9299 87.1825 15.3069C87.5925 15.6838 88.1451 15.8641 88.8581 15.8641C89.4463 15.8641 89.981 15.8149 90.4801 15.7002C90.9792 15.5855 91.4783 15.4216 91.9952 15.1921V16.9786C91.5318 17.1917 91.0505 17.3392 90.5514 17.4375C90.0523 17.5358 89.4463 17.585 88.7333 17.585C87.8064 17.585 86.9865 17.4211 86.2735 17.1097C85.5605 16.7983 85.0079 16.323 84.5979 15.6674C84.188 15.0282 83.9919 14.2088 83.9919 13.2418C83.9919 12.242 84.1702 11.4226 84.5445 10.767C84.9188 10.095 85.4179 9.60332 86.0774 9.27553C86.7369 8.93135 87.4856 8.76746 88.359 8.76746ZM88.3768 10.4228C87.8777 10.4228 87.4856 10.5703 87.1469 10.8489C86.826 11.1439 86.6478 11.5865 86.5943 12.2093H90.1415C90.1415 11.8651 90.0702 11.5537 89.9276 11.2914C89.8028 11.0292 89.6067 10.8161 89.3572 10.6522C89.1076 10.4884 88.7689 10.4228 88.3768 10.4228ZM96.6297 17.585C95.5958 17.585 94.7581 17.2081 94.1164 16.4705C93.4747 15.733 93.1538 14.6349 93.1538 13.1926C93.1538 11.734 93.4747 10.6359 94.1342 9.89833C94.7937 9.14441 95.6493 8.76746 96.701 8.76746C97.1466 8.76746 97.5387 8.81662 97.8596 8.93135C98.1982 9.04608 98.4835 9.19358 98.733 9.37387C98.9825 9.55415 99.1964 9.76722 99.3569 10.0131H99.446C99.4103 9.84916 99.3747 9.61971 99.3212 9.29192C99.2856 8.98052 99.2499 8.65273 99.2499 8.30855V5.58789H101.781V17.4211H99.8381L99.3569 16.323H99.2499C99.0895 16.5525 98.8934 16.7655 98.6439 16.9622C98.4122 17.1425 98.1269 17.3064 97.7883 17.4047C97.4674 17.5195 97.0753 17.585 96.6297 17.585ZM97.5209 15.733C98.2161 15.733 98.6973 15.5527 98.9825 15.1758C99.2677 14.7988 99.4282 14.2252 99.446 13.4712V13.2254C99.446 12.4059 99.3034 11.7667 99.036 11.3242C98.7686 10.8817 98.2517 10.6686 97.5031 10.6686C96.9505 10.6686 96.5049 10.8817 96.2019 11.3242C95.881 11.7667 95.7384 12.4059 95.7384 13.2254C95.7384 14.0613 95.8989 14.6841 96.2019 15.1102C96.4871 15.5199 96.9505 15.733 97.5209 15.733ZM106.095 8.93135V17.4375H103.581V8.93135H106.095ZM104.847 5.60428C105.221 5.60428 105.542 5.68623 105.809 5.85012C106.077 6.01402 106.219 6.30903 106.219 6.73516C106.219 7.16128 106.077 7.47268 105.809 7.63658C105.542 7.80047 105.221 7.88242 104.847 7.88242C104.473 7.88242 104.134 7.80047 103.867 7.63658C103.599 7.47268 103.474 7.17767 103.474 6.73516C103.474 6.29264 103.599 5.99763 103.867 5.85012C104.134 5.66984 104.455 5.60428 104.847 5.60428ZM111.692 8.75106C112.939 8.75106 113.884 8.99691 114.544 9.48859C115.203 9.98028 115.542 10.7342 115.542 11.7503V17.4211H113.777L113.296 16.2575H113.225C112.957 16.5689 112.69 16.8147 112.422 16.995C112.155 17.1917 111.834 17.3228 111.478 17.4211C111.121 17.5195 110.676 17.5522 110.176 17.5522C109.624 17.5522 109.143 17.4539 108.697 17.2572C108.269 17.0605 107.931 16.7655 107.681 16.3722C107.431 15.9788 107.307 15.4708 107.307 14.848C107.307 13.9465 107.645 13.2746 108.341 12.8484C109.036 12.4223 110.07 12.1765 111.442 12.1273L113.046 12.0781V11.7012C113.046 11.2587 112.922 10.9309 112.672 10.7178C112.422 10.5047 112.066 10.4064 111.62 10.4064C111.175 10.4064 110.729 10.472 110.301 10.5867C109.873 10.7014 109.446 10.8489 109.018 11.0292L108.18 9.45581C108.679 9.20997 109.214 9.02969 109.82 8.89857C110.408 8.81662 111.05 8.75106 111.692 8.75106ZM113.028 13.4876L112.048 13.5204C111.228 13.5368 110.658 13.6679 110.337 13.9302C110.016 14.176 109.873 14.5038 109.873 14.9135C109.873 15.2741 109.98 15.5199 110.212 15.6674C110.444 15.8149 110.729 15.8805 111.103 15.8805C111.638 15.8805 112.102 15.733 112.476 15.438C112.85 15.143 113.046 14.7332 113.046 14.176V13.4876H113.028ZM57.1122 21.7807C56.3457 21.7807 55.6505 21.8955 55.0445 22.1413C54.4384 22.3871 53.9215 22.7149 53.5116 23.1574C53.0838 23.6 52.7807 24.1244 52.549 24.7308C52.3351 25.3373 52.2103 26.0092 52.2103 26.7468C52.2103 27.7629 52.3886 28.6479 52.7273 29.4019C53.0659 30.1558 53.6007 30.7458 54.2958 31.1555C54.991 31.5653 55.8644 31.7783 56.9161 31.7783C57.5221 31.7783 58.0747 31.7456 58.5738 31.6636C59.0729 31.5817 59.5363 31.4669 59.9463 31.3358V32.0242C59.5363 32.1553 59.0907 32.27 58.5738 32.352C58.0747 32.4339 57.4865 32.4831 56.827 32.4831C55.6149 32.4831 54.5989 32.2372 53.7789 31.7619C52.959 31.2866 52.3529 30.6147 51.943 29.7624C51.533 28.8938 51.3191 27.894 51.3191 26.7468C51.3191 25.9273 51.4439 25.157 51.7112 24.4686C51.9786 23.7802 52.3529 23.1738 52.852 22.6658C53.3511 22.1577 53.9572 21.7643 54.688 21.4857C55.401 21.2071 56.2209 21.0596 57.13 21.0596C57.7004 21.0596 58.2529 21.1088 58.7877 21.2235C59.3224 21.3218 59.8215 21.4693 60.2671 21.666L59.9285 22.3544C59.4829 22.1577 59.0194 22.0102 58.556 21.9118C58.0925 21.8135 57.5934 21.7807 57.1122 21.7807ZM62.2813 32.3356H61.4436V20.5023H62.2813V32.3356ZM71.8711 28.2054C71.8711 28.8446 71.7819 29.4346 71.6215 29.9591C71.4433 30.4836 71.1937 30.9261 70.8551 31.3194C70.5164 31.6964 70.1064 31.9914 69.5895 32.2045C69.0904 32.4175 68.52 32.5159 67.8605 32.5159C67.2366 32.5159 66.6662 32.4175 66.185 32.2045C65.6859 31.9914 65.2759 31.6964 64.9372 31.3194C64.5986 30.9425 64.349 30.4836 64.1708 29.9591C63.9925 29.4346 63.9034 28.8446 63.9034 28.2054C63.9034 27.3204 64.0638 26.5501 64.3847 25.9109C64.7055 25.2717 65.169 24.78 65.775 24.4358C66.381 24.0917 67.1119 23.9114 67.9496 23.9114C68.823 23.9114 69.5538 24.0917 70.1242 24.4522C70.7125 24.8128 71.1402 25.3209 71.4433 25.9601C71.7285 26.6156 71.8711 27.3532 71.8711 28.2054ZM64.759 28.2054C64.759 28.9266 64.8659 29.5658 65.0977 30.1066C65.3294 30.6475 65.668 31.0736 66.1315 31.3686C66.5949 31.68 67.1831 31.8275 67.8783 31.8275C68.6091 31.8275 69.1973 31.68 69.6608 31.3686C70.1242 31.0572 70.4629 30.6311 70.6946 30.0902C70.9263 29.5494 71.0333 28.9102 71.0333 28.189C71.0333 27.5007 70.9264 26.8779 70.7125 26.337C70.4986 25.7962 70.1777 25.37 69.7143 25.0586C69.2686 24.7472 68.6804 24.5833 67.9496 24.5833C66.9158 24.5833 66.1137 24.8947 65.5789 25.5339C65.0264 26.1895 64.759 27.0745 64.759 28.2054ZM80.4982 24.0753V32.3356H79.8209L79.6961 30.8441H79.6427C79.4822 31.1555 79.2683 31.4178 78.9831 31.68C78.6979 31.9258 78.3593 32.1225 77.9493 32.27C77.5393 32.4175 77.0759 32.4831 76.5233 32.4831C75.8282 32.4831 75.2578 32.3684 74.7943 32.1553C74.3309 31.9258 73.9744 31.598 73.7427 31.1555C73.5109 30.713 73.3862 30.1558 73.3862 29.4838V24.0753H74.2239V29.4182C74.2239 30.2377 74.42 30.8605 74.83 31.2375C75.2399 31.6308 75.8282 31.8275 76.6125 31.8275C77.272 31.8275 77.8245 31.7128 78.2702 31.4833C78.7158 31.2539 79.0723 30.8933 79.304 30.4344C79.5357 29.9591 79.6605 29.3691 79.6605 28.6479V24.0917H80.4982V24.0753ZM85.917 32.4995C84.6871 32.4995 83.7424 32.1389 83.1007 31.4341C82.459 30.713 82.1381 29.6805 82.1381 28.3201C82.1381 26.8943 82.4768 25.7962 83.1541 25.0586C83.8315 24.3047 84.7762 23.9278 85.9883 23.9278C86.5052 23.9278 86.9508 23.9933 87.343 24.1408C87.7351 24.2883 88.056 24.485 88.3055 24.7472C88.5729 24.9931 88.7689 25.2717 88.9115 25.5995H88.9828C88.965 25.3373 88.9472 25.0422 88.9294 24.7308C88.9115 24.4194 88.9115 24.1408 88.9115 23.8786V20.5187H89.7493V32.352H89.072L88.965 30.8441H88.9115C88.7689 31.1555 88.555 31.4341 88.2877 31.68C88.0203 31.9258 87.6995 32.1389 87.3073 32.2864C86.9508 32.4175 86.4696 32.4995 85.917 32.4995ZM86.0061 31.8275C87.0578 31.8275 87.8242 31.5325 88.2699 30.9261C88.7155 30.3197 88.9472 29.451 88.9472 28.3201V28.2054C88.9472 27.0418 88.7155 26.1403 88.2699 25.5339C87.8242 24.9111 87.0934 24.5997 86.0952 24.5997C85.097 24.5997 84.3306 24.9111 83.8137 25.5503C83.2967 26.1895 83.0294 27.1237 83.0294 28.3365C83.0294 29.4838 83.2789 30.3524 83.7602 30.9425C84.2415 31.5325 85.0079 31.8275 86.0061 31.8275Z" fill="white"/>
<path id="Vector_6" opacity="0.1" d="M0 47.9727H118" stroke="white" stroke-width="4"/>
<path id="Vector_7" d="M36.2218 59.4287L36.2575 59.0845H37.5409V62.3624H36.2753C35.7228 60.5923 33.2629 59.9531 30.6249 59.9531C28.6463 59.9531 27.3095 60.4776 27.3095 61.2315C27.3095 61.9035 28.3255 62.2149 29.9475 62.428L33.2095 62.8705C36.6675 63.3458 38.3608 63.9358 38.3965 65.8698C38.4321 67.6726 35.9545 68.9346 32.3182 68.9346C30.6605 68.9346 28.7711 68.7215 27.0956 68.0823C27.0956 68.0823 26.133 67.689 26.0795 68.656H24.7249V64.9356H25.9548C26.4895 66.8531 29.0919 67.6562 32.0687 67.6562C34.2433 67.6562 35.4019 67.2137 35.4019 66.4106C35.4019 65.6567 34.5285 65.2306 32.6569 64.9847L30.0723 64.788C26.436 64.2964 24.4218 63.6244 24.4575 61.7888C24.511 60.0023 26.9708 58.8223 30.5357 58.8223C32.1934 58.8223 34.065 59.0681 35.491 59.6417C36.2931 59.9368 36.2218 59.4287 36.2218 59.4287Z" fill="white"/>
<path id="Vector_8" d="M44.1355 63.8862C44.1355 61.3458 45.9001 59.9199 48.7699 59.9199C51.6397 59.9199 53.3866 61.3294 53.3866 63.8862C53.3866 66.443 51.6219 67.8525 48.7521 67.8525C45.9001 67.8688 44.1355 66.443 44.1355 63.8862ZM40.6953 63.8862C40.6953 66.9346 43.9038 68.9997 48.7699 68.9997C53.6539 68.9997 56.8267 66.9346 56.8267 63.8862C56.8267 60.8377 53.6361 58.7891 48.7699 58.7891C43.9038 58.7891 40.6953 60.8377 40.6953 63.8862Z" fill="white"/>
<path id="Vector_9" d="M71.1204 68.4912L62.8141 62.0829V66.5737C62.8141 67.344 62.9923 67.4259 64.2579 67.4259H65.0244L64.9709 68.4421L58.4648 68.4748V67.4095H59.2848C60.5503 67.4095 60.7286 67.3276 60.7286 66.5573V61.0996C60.7286 60.3292 60.5503 60.2473 59.2848 60.2473H58.554V59.182H63.7945L71.3878 65.0658V61.0504C71.3878 60.2801 71.2096 60.1981 69.944 60.1981H69.2132V59.1328L75.3271 59.182V60.2473H74.6497C73.3842 60.2473 73.3842 60.3292 73.3842 61.0996V68.4748H71.1204V68.4912Z" fill="white"/>
<path id="Vector_10" d="M88.5715 67.426H88.8388V68.4913H81.5842V67.426H82.1902C83.5983 67.426 83.7766 67.344 83.7766 66.5737V64.7873L79.766 61.2144C79.0174 60.5752 78.4113 60.2638 77.4132 60.2638H76.9141V59.2148H84.2222V60.2802H84.044C83.3488 60.2802 82.9745 60.3621 82.9745 60.5752C82.9745 60.6899 83.0993 60.8538 83.3132 61.0341L86.0582 63.5745L88.9636 60.9521C89.1597 60.8046 89.2845 60.6735 89.2845 60.526C89.2845 60.3621 88.9636 60.2802 88.411 60.2802H87.4307V59.2148H93.5624V60.2802H93.0098C92.1008 60.2802 91.673 60.4441 91.1204 60.8866L86.9494 64.8201V66.6065C86.9494 67.3604 87.1633 67.426 88.5715 67.426Z" fill="white"/>
</g>
</g>
</g>
</g>
</g>
</g>
</g>
</g>
</g>
</g>
</g>
<defs>
<clipPath id="clip0_603_75686">
<rect width="1464" height="14474" fill="white" transform="translate(-671 -11389)"/>
</clipPath>
<clipPath id="clip1_603_75686">
<rect width="1464" height="1040" fill="white" transform="translate(-671 -521)"/>
</clipPath>
</defs>
</svg>
